<svg xmlns="http://www.w3.org/2000/svg" xmlns:xlink="http://www.w3.org/1999/xlink" width="500" zoomAndPan="magnify" viewBox="0 0 375 374.999991" height="500" preserveAspectRatio="xMidYMid meet" version="1.2"><defs><clipPath id="64f678f50e"><path d="M 0.601562 0.878906 L 155.160156 0.878906 L 155.160156 49.121094 L 0.601562 49.121094 Z M 0.601562 0.878906 "/></clipPath><clipPath id="f6b617cf63"><rect x="0" width="156" y="0" height="50"/></clipPath><clipPath id="a415d10a55"><rect x="0" width="156" y="0" height="50"/></clipPath><clipPath id="163db72cf9"><rect x="0" width="147" y="0" height="102"/></clipPath></defs><g id="74aae558f8"><g transform="matrix(1,0,0,1,165,152)"><g clip-path="url(#a415d10a55)"><g clip-rule="nonzero" clip-path="url(#64f678f50e)"><g><g id="4c77a2e8f9" clip-path="url(#f6b617cf63)"><g style="fill:#fed5ff;fill-opacity:1;"><g transform="translate(3.095428, 38.562949)"><path style="stroke:none" d="M 27.90625 -24.390625 C 27.351562 -25.753906 26.460938 -26.796875 25.234375 -27.515625 C 24.015625 -28.242188 22.707031 -28.742188 21.3125 -29.015625 C 20.207031 -29.242188 19.078125 -29.332031 17.921875 -29.28125 C 16.765625 -29.226562 15.6875 -29.070312 14.6875 -28.8125 C 13.6875 -28.550781 12.875 -28.1875 12.25 -27.71875 C 11.632812 -27.257812 11.304688 -26.726562 11.265625 -26.125 C 11.222656 -25.519531 11.578125 -24.863281 12.328125 -24.15625 C 13.078125 -23.445312 14.335938 -22.695312 16.109375 -21.90625 C 17.023438 -21.488281 17.984375 -21.066406 18.984375 -20.640625 C 19.984375 -20.222656 20.90625 -19.710938 21.75 -19.109375 C 22.988281 -18.265625 23.882812 -17.253906 24.4375 -16.078125 C 24.988281 -14.910156 25.265625 -13.675781 25.265625 -12.375 C 25.265625 -11.070312 25.023438 -9.800781 24.546875 -8.5625 C 23.972656 -6.957031 23.175781 -5.609375 22.15625 -4.515625 C 21.144531 -3.421875 20 -2.546875 18.71875 -1.890625 C 17.445312 -1.234375 16.132812 -0.753906 14.78125 -0.453125 C 13.425781 -0.148438 12.117188 0 10.859375 0 C 9.984375 0 8.976562 -0.0859375 7.84375 -0.265625 C 6.71875 -0.453125 5.585938 -0.769531 4.453125 -1.21875 C 3.328125 -1.664062 2.316406 -2.269531 1.421875 -3.03125 C 0.523438 -3.800781 -0.101562 -4.773438 -0.46875 -5.953125 C -0.84375 -7.140625 -0.894531 -8.367188 -0.625 -9.640625 C -0.363281 -10.921875 0.09375 -12.085938 0.75 -13.140625 C 1.40625 -14.191406 2.140625 -14.96875 2.953125 -15.46875 C 3.171875 -15.601562 3.382812 -15.660156 3.59375 -15.640625 C 3.800781 -15.628906 3.835938 -15.375 3.703125 -14.875 C 3.441406 -13.976562 3.484375 -13.210938 3.828125 -12.578125 C 4.171875 -11.953125 4.671875 -11.441406 5.328125 -11.046875 C 6.035156 -10.648438 6.941406 -10.347656 8.046875 -10.140625 C 9.148438 -9.929688 10.3125 -9.832031 11.53125 -9.84375 C 12.757812 -9.863281 13.898438 -9.976562 14.953125 -10.1875 C 16.171875 -10.414062 17.1875 -10.8125 18 -11.375 C 18.8125 -11.945312 19.347656 -12.628906 19.609375 -13.421875 C 19.878906 -14.210938 19.765625 -15.0625 19.265625 -15.96875 C 18.765625 -16.875 17.789062 -17.757812 16.34375 -18.625 C 15.5 -19.15625 14.578125 -19.632812 13.578125 -20.0625 C 12.578125 -20.5 11.601562 -20.96875 10.65625 -21.46875 C 9.707031 -21.96875 8.890625 -22.546875 8.203125 -23.203125 C 7.390625 -24.023438 6.890625 -24.921875 6.703125 -25.890625 C 6.523438 -26.867188 6.570312 -27.84375 6.84375 -28.8125 C 7.125 -29.78125 7.570312 -30.679688 8.1875 -31.515625 C 8.8125 -32.347656 9.488281 -33.023438 10.21875 -33.546875 C 11.25 -34.253906 12.375 -34.800781 13.59375 -35.1875 C 14.820312 -35.570312 16.039062 -35.832031 17.25 -35.96875 C 18.457031 -36.113281 19.550781 -36.1875 20.53125 -36.1875 C 22.3125 -36.1875 23.988281 -35.984375 25.5625 -35.578125 C 27.144531 -35.171875 28.410156 -34.507812 29.359375 -33.59375 C 30.285156 -32.71875 30.875 -31.722656 31.125 -30.609375 C 31.375 -29.492188 31.320312 -28.363281 30.96875 -27.21875 C 30.613281 -26.070312 29.988281 -25.035156 29.09375 -24.109375 C 28.820312 -23.847656 28.59375 -23.722656 28.40625 -23.734375 C 28.226562 -23.753906 28.0625 -23.972656 27.90625 -24.390625 Z M 27.90625 -24.390625 "/></g></g><g style="fill:#fed5ff;fill-opacity:1;"><g transform="translate(31.208709, 38.562949)"><path style="stroke:none" d=""/></g></g><g style="fill:#fed5ff;fill-opacity:1;"><g transform="translate(31.19715, 38.562949)"><path style="stroke:none" d="M 19.1875 -19.0625 C 19.082031 -18.851562 18.894531 -18.609375 18.625 -18.328125 C 18.363281 -18.054688 18.113281 -17.816406 17.875 -17.609375 C 17.21875 -16.972656 16.625 -16.132812 16.09375 -15.09375 C 15.570312 -14.050781 15.09375 -12.882812 14.65625 -11.59375 C 14.226562 -10.3125 13.847656 -9.003906 13.515625 -7.671875 C 13.191406 -6.347656 12.90625 -5.078125 12.65625 -3.859375 C 12.40625 -2.648438 12.195312 -1.597656 12.03125 -0.703125 C 11.800781 0.660156 11.625 2.125 11.5 3.6875 C 11.382812 5.25 11.300781 6.953125 11.25 8.796875 C 11.21875 9.140625 11.148438 9.40625 11.046875 9.59375 C 10.941406 9.78125 10.691406 9.875 10.296875 9.875 L 3.3125 9.875 C 2.945312 9.875 2.773438 9.773438 2.796875 9.578125 C 2.828125 9.378906 2.910156 9.171875 3.046875 8.953125 C 3.929688 7.484375 4.859375 5.710938 5.828125 3.640625 C 6.804688 1.578125 7.742188 -0.566406 8.640625 -2.796875 C 7.796875 -1.960938 6.859375 -1.285156 5.828125 -0.765625 C 4.804688 -0.253906 3.71875 0 2.5625 0 C 1.488281 0 0.625 -0.328125 -0.03125 -0.984375 C -0.695312 -1.640625 -1.144531 -2.5 -1.375 -3.5625 C -1.613281 -4.632812 -1.65625 -5.785156 -1.5 -7.015625 C -1.34375 -8.253906 -1 -9.453125 -0.46875 -10.609375 C -0.0507812 -11.503906 0.457031 -12.460938 1.0625 -13.484375 C 1.664062 -14.515625 2.351562 -15.476562 3.125 -16.375 C 3.957031 -17.320312 4.875 -18.117188 5.875 -18.765625 C 6.875 -19.410156 7.957031 -19.734375 9.125 -19.734375 C 9.851562 -19.734375 10.523438 -19.546875 11.140625 -19.171875 C 11.765625 -18.804688 12.273438 -18.242188 12.671875 -17.484375 C 12.773438 -17.296875 12.882812 -17.203125 13 -17.203125 C 13.125 -17.203125 13.195312 -17.347656 13.21875 -17.640625 C 13.25 -17.847656 13.269531 -18.0625 13.28125 -18.28125 C 13.289062 -18.507812 13.285156 -18.71875 13.265625 -18.90625 C 13.265625 -19.113281 13.304688 -19.300781 13.390625 -19.46875 C 13.484375 -19.644531 13.664062 -19.734375 13.9375 -19.734375 C 14.300781 -19.734375 14.710938 -19.640625 15.171875 -19.453125 C 15.628906 -19.273438 16.101562 -19.144531 16.59375 -19.0625 C 17.082031 -18.976562 17.5625 -19.097656 18.03125 -19.421875 C 18.164062 -19.492188 18.285156 -19.5625 18.390625 -19.625 C 18.492188 -19.695312 18.613281 -19.734375 18.75 -19.734375 C 18.9375 -19.734375 19.082031 -19.671875 19.1875 -19.546875 C 19.289062 -19.429688 19.289062 -19.269531 19.1875 -19.0625 Z M 6.359375 -13.96875 C 5.035156 -13.96875 3.90625 -13.703125 2.96875 -13.171875 C 2.039062 -12.648438 1.578125 -12.007812 1.578125 -11.25 C 1.578125 -10.507812 2.039062 -9.875 2.96875 -9.34375 C 3.90625 -8.820312 5.035156 -8.5625 6.359375 -8.5625 C 7.671875 -8.5625 8.800781 -8.820312 9.75 -9.34375 C 10.695312 -9.875 11.171875 -10.507812 11.171875 -11.25 C 11.171875 -12.007812 10.695312 -12.648438 9.75 -13.171875 C 8.800781 -13.703125 7.671875 -13.96875 6.359375 -13.96875 Z M 6.359375 -13.96875 "/></g></g><g style="fill:#fed5ff;fill-opacity:1;"><g transform="translate(49.560431, 38.562949)"><path style="stroke:none" d=""/></g></g><g style="fill:#fed5ff;fill-opacity:1;"><g transform="translate(49.550088, 38.562949)"><path style="stroke:none" d="M 19.890625 -11.609375 C 20.046875 -11.816406 20.203125 -11.898438 20.359375 -11.859375 C 20.523438 -11.816406 20.617188 -11.707031 20.640625 -11.53125 C 20.722656 -11.132812 20.6875 -10.566406 20.53125 -9.828125 C 20.3125 -8.773438 19.875 -7.675781 19.21875 -6.53125 C 18.5625 -5.382812 17.757812 -4.316406 16.8125 -3.328125 C 15.863281 -2.347656 14.835938 -1.546875 13.734375 -0.921875 C 12.628906 -0.304688 11.507812 0 10.375 0 C 9.539062 0 8.785156 -0.257812 8.109375 -0.78125 C 7.441406 -1.3125 7 -2.050781 6.78125 -3 C 5.894531 -2.101562 4.925781 -1.378906 3.875 -0.828125 C 2.820312 -0.273438 1.753906 0 0.671875 0 C -0.484375 0 -1.441406 -0.460938 -2.203125 -1.390625 C -2.972656 -2.328125 -3.238281 -3.597656 -3 -5.203125 C -2.8125 -6.335938 -2.519531 -7.316406 -2.125 -8.140625 C -1.738281 -8.972656 -1.296875 -9.738281 -0.796875 -10.4375 C -0.296875 -11.132812 0.175781 -11.863281 0.625 -12.625 C 1.070312 -13.394531 1.441406 -14.28125 1.734375 -15.28125 C 2.023438 -16.28125 2.144531 -17.488281 2.09375 -18.90625 C 2.09375 -19.113281 2.128906 -19.300781 2.203125 -19.46875 C 2.285156 -19.644531 2.457031 -19.734375 2.71875 -19.734375 C 3.195312 -19.734375 3.800781 -19.628906 4.53125 -19.421875 C 5.269531 -19.210938 6.019531 -19.066406 6.78125 -18.984375 C 7.550781 -18.898438 8.210938 -19.046875 8.765625 -19.421875 C 8.890625 -19.492188 9.003906 -19.5625 9.109375 -19.625 C 9.222656 -19.695312 9.359375 -19.734375 9.515625 -19.734375 C 9.691406 -19.734375 9.832031 -19.660156 9.9375 -19.515625 C 10.050781 -19.367188 10.03125 -19.175781 9.875 -18.9375 C 9.445312 -18.332031 8.90625 -17.757812 8.25 -17.21875 C 7.59375 -16.6875 6.953125 -16.125 6.328125 -15.53125 C 5.710938 -14.9375 5.222656 -14.242188 4.859375 -13.453125 C 4.460938 -12.554688 4.351562 -11.804688 4.53125 -11.203125 C 4.71875 -10.597656 5.082031 -10.175781 5.625 -9.9375 C 6.164062 -9.707031 6.796875 -9.695312 7.515625 -9.90625 C 8.242188 -10.113281 8.957031 -10.597656 9.65625 -11.359375 C 10.351562 -12.128906 10.953125 -13.222656 11.453125 -14.640625 C 11.660156 -15.242188 11.816406 -15.890625 11.921875 -16.578125 C 12.023438 -17.265625 12.0625 -18.039062 12.03125 -18.90625 C 12.007812 -19.113281 12.046875 -19.300781 12.140625 -19.46875 C 12.234375 -19.644531 12.410156 -19.734375 12.671875 -19.734375 C 13.140625 -19.734375 13.734375 -19.628906 14.453125 -19.421875 C 15.179688 -19.210938 15.921875 -19.066406 16.671875 -18.984375 C 17.421875 -18.898438 18.070312 -19.046875 18.625 -19.421875 C 18.757812 -19.492188 18.878906 -19.5625 18.984375 -19.625 C 19.085938 -19.695312 19.207031 -19.734375 19.34375 -19.734375 C 19.550781 -19.734375 19.707031 -19.660156 19.8125 -19.515625 C 19.914062 -19.367188 19.890625 -19.175781 19.734375 -18.9375 C 19.367188 -18.414062 18.910156 -17.914062 18.359375 -17.4375 C 17.804688 -16.96875 17.242188 -16.492188 16.671875 -16.015625 C 16.109375 -15.546875 15.601562 -15.023438 15.15625 -14.453125 C 14.707031 -13.890625 14.40625 -13.226562 14.25 -12.46875 C 14.0625 -11.570312 14.195312 -10.898438 14.65625 -10.453125 C 15.125 -10.003906 15.710938 -9.78125 16.421875 -9.78125 C 17.023438 -9.78125 17.640625 -9.9375 18.265625 -10.25 C 18.898438 -10.570312 19.441406 -11.023438 19.890625 -11.609375 Z M 19.890625 -11.609375 "/></g></g><g style="fill:#fed5ff;fill-opacity:1;"><g transform="translate(69.448526, 38.562949)"><path style="stroke:none" d=""/></g></g><g style="fill:#fed5ff;fill-opacity:1;"><g transform="translate(69.442314, 38.562949)"><path style="stroke:none" d="M 8.203125 -27.234375 C 9.316406 -27.179688 10.1875 -26.816406 10.8125 -26.140625 C 11.445312 -25.472656 11.660156 -24.71875 11.453125 -23.875 C 11.234375 -23.007812 10.65625 -22.289062 9.71875 -21.71875 C 8.789062 -21.15625 7.773438 -20.898438 6.671875 -20.953125 C 5.566406 -21.035156 4.695312 -21.40625 4.0625 -22.0625 C 3.4375 -22.71875 3.226562 -23.484375 3.4375 -24.359375 C 3.644531 -25.222656 4.210938 -25.9375 5.140625 -26.5 C 6.078125 -27.070312 7.097656 -27.316406 8.203125 -27.234375 Z M 10.1875 -11.609375 C 10.34375 -11.816406 10.5 -11.898438 10.65625 -11.859375 C 10.8125 -11.816406 10.90625 -11.707031 10.9375 -11.53125 C 11.007812 -11.132812 10.96875 -10.566406 10.8125 -9.828125 C 10.601562 -8.773438 10.171875 -7.675781 9.515625 -6.53125 C 8.859375 -5.382812 8.0625 -4.316406 7.125 -3.328125 C 6.1875 -2.347656 5.164062 -1.546875 4.0625 -0.921875 C 2.957031 -0.304688 1.835938 0 0.703125 0 C -0.472656 0 -1.441406 -0.460938 -2.203125 -1.390625 C -2.972656 -2.328125 -3.238281 -3.597656 -3 -5.203125 C -2.8125 -6.335938 -2.519531 -7.316406 -2.125 -8.140625 C -1.738281 -8.972656 -1.296875 -9.738281 -0.796875 -10.4375 C -0.296875 -11.132812 0.175781 -11.863281 0.625 -12.625 C 1.070312 -13.394531 1.441406 -14.28125 1.734375 -15.28125 C 2.023438 -16.28125 2.144531 -17.488281 2.09375 -18.90625 C 2.09375 -19.113281 2.140625 -19.300781 2.234375 -19.46875 C 2.328125 -19.644531 2.503906 -19.734375 2.765625 -19.734375 C 3.109375 -19.734375 3.539062 -19.664062 4.0625 -19.53125 C 4.59375 -19.40625 5.148438 -19.28125 5.734375 -19.15625 C 6.328125 -19.039062 6.898438 -18.988281 7.453125 -19 C 8.003906 -19.019531 8.492188 -19.160156 8.921875 -19.421875 C 9.054688 -19.492188 9.175781 -19.5625 9.28125 -19.625 C 9.382812 -19.695312 9.5 -19.734375 9.625 -19.734375 C 9.84375 -19.734375 10.003906 -19.660156 10.109375 -19.515625 C 10.210938 -19.367188 10.1875 -19.175781 10.03125 -18.9375 C 9.65625 -18.414062 9.191406 -17.914062 8.640625 -17.4375 C 8.085938 -16.96875 7.53125 -16.492188 6.96875 -16.015625 C 6.40625 -15.546875 5.898438 -15.023438 5.453125 -14.453125 C 5.003906 -13.890625 4.695312 -13.226562 4.53125 -12.46875 C 4.351562 -11.570312 4.492188 -10.898438 4.953125 -10.453125 C 5.410156 -10.003906 5.992188 -9.78125 6.703125 -9.78125 C 7.316406 -9.78125 7.9375 -9.9375 8.5625 -10.25 C 9.195312 -10.570312 9.738281 -11.023438 10.1875 -11.609375 Z M 10.1875 -11.609375 "/></g></g><g style="fill:#fed5ff;fill-opacity:1;"><g transform="translate(79.625908, 38.562949)"><path style="stroke:none" d=""/></g></g><g style="fill:#fed5ff;fill-opacity:1;"><g transform="translate(79.625247, 38.562949)"><path style="stroke:none" d="M 13.578125 -19.9375 C 14.710938 -19.957031 15.5625 -19.78125 16.125 -19.40625 C 16.6875 -19.039062 17.019531 -18.648438 17.125 -18.234375 C 17.28125 -17.734375 17.203125 -17.195312 16.890625 -16.625 C 16.578125 -16.0625 16.128906 -15.5 15.546875 -14.9375 C 14.972656 -14.375 14.367188 -13.84375 13.734375 -13.34375 C 13.179688 -12.914062 12.800781 -12.425781 12.59375 -11.875 C 12.382812 -11.320312 12.414062 -10.832031 12.6875 -10.40625 C 12.96875 -9.988281 13.554688 -9.78125 14.453125 -9.78125 C 15.054688 -9.78125 15.671875 -9.9375 16.296875 -10.25 C 16.929688 -10.570312 17.472656 -11.023438 17.921875 -11.609375 C 18.078125 -11.816406 18.234375 -11.898438 18.390625 -11.859375 C 18.546875 -11.816406 18.640625 -11.707031 18.671875 -11.53125 C 18.742188 -11.132812 18.703125 -10.566406 18.546875 -9.828125 C 18.335938 -8.773438 17.90625 -7.675781 17.25 -6.53125 C 16.59375 -5.382812 15.796875 -4.316406 14.859375 -3.328125 C 13.921875 -2.347656 12.898438 -1.546875 11.796875 -0.921875 C 10.691406 -0.304688 9.578125 0 8.453125 0 C 7.078125 0 5.941406 -0.332031 5.046875 -1 C 4.148438 -1.675781 3.570312 -2.550781 3.3125 -3.625 C 3.050781 -4.707031 3.15625 -5.851562 3.625 -7.0625 C 4 -7.957031 4.546875 -8.734375 5.265625 -9.390625 C 5.992188 -10.046875 6.765625 -10.671875 7.578125 -11.265625 C 8.390625 -11.859375 9.097656 -12.523438 9.703125 -13.265625 C 10.472656 -14.179688 10.9375 -14.988281 11.09375 -15.6875 C 11.25 -16.382812 11.085938 -16.84375 10.609375 -17.0625 C 10.140625 -17.289062 9.285156 -17.113281 8.046875 -16.53125 C 7.703125 -16.40625 7.332031 -16.273438 6.9375 -16.140625 C 6.550781 -16.015625 6.144531 -15.910156 5.71875 -15.828125 C 5.957031 -14.796875 5.890625 -13.773438 5.515625 -12.765625 C 5.148438 -11.753906 4.5625 -10.929688 3.75 -10.296875 C 2.9375 -9.671875 1.960938 -9.410156 0.828125 -9.515625 C 0.0859375 -9.585938 -0.46875 -9.847656 -0.84375 -10.296875 C -1.226562 -10.742188 -1.441406 -11.253906 -1.484375 -11.828125 C -1.523438 -12.410156 -1.425781 -12.960938 -1.1875 -13.484375 C -0.945312 -14.015625 -0.59375 -14.414062 -0.125 -14.6875 C 0.113281 -14.84375 0.257812 -14.789062 0.3125 -14.53125 C 0.414062 -14.101562 0.625 -13.789062 0.9375 -13.59375 C 1.257812 -13.394531 1.601562 -13.3125 1.96875 -13.34375 C 2.65625 -13.363281 3.160156 -13.609375 3.484375 -14.078125 C 3.816406 -14.554688 3.972656 -15.097656 3.953125 -15.703125 C 3.453125 -15.753906 3.039062 -15.847656 2.71875 -15.984375 C 2.039062 -16.296875 1.609375 -16.734375 1.421875 -17.296875 C 1.234375 -17.867188 1.21875 -18.46875 1.375 -19.09375 C 1.539062 -19.726562 1.78125 -20.285156 2.09375 -20.765625 C 2.351562 -21.109375 2.59375 -21.285156 2.8125 -21.296875 C 3.039062 -21.304688 3.300781 -21.113281 3.59375 -20.71875 C 4.195312 -19.875 4.90625 -19.351562 5.71875 -19.15625 C 6.539062 -18.957031 7.410156 -18.925781 8.328125 -19.0625 C 9.242188 -19.195312 10.15625 -19.375 11.0625 -19.59375 C 11.976562 -19.820312 12.816406 -19.9375 13.578125 -19.9375 Z M 13.578125 -19.9375 "/></g></g><g style="fill:#fed5ff;fill-opacity:1;"><g transform="translate(97.554934, 38.562949)"><path style="stroke:none" d=""/></g></g><g style="fill:#fed5ff;fill-opacity:1;"><g transform="translate(97.544049, 38.562949)"><path style="stroke:none" d="M 13.578125 -19.9375 C 14.710938 -19.957031 15.5625 -19.78125 16.125 -19.40625 C 16.6875 -19.039062 17.019531 -18.648438 17.125 -18.234375 C 17.28125 -17.734375 17.203125 -17.195312 16.890625 -16.625 C 16.578125 -16.0625 16.128906 -15.5 15.546875 -14.9375 C 14.972656 -14.375 14.367188 -13.84375 13.734375 -13.34375 C 13.179688 -12.914062 12.800781 -12.425781 12.59375 -11.875 C 12.382812 -11.320312 12.414062 -10.832031 12.6875 -10.40625 C 12.96875 -9.988281 13.554688 -9.78125 14.453125 -9.78125 C 15.054688 -9.78125 15.671875 -9.9375 16.296875 -10.25 C 16.929688 -10.570312 17.472656 -11.023438 17.921875 -11.609375 C 18.078125 -11.816406 18.234375 -11.898438 18.390625 -11.859375 C 18.546875 -11.816406 18.640625 -11.707031 18.671875 -11.53125 C 18.742188 -11.132812 18.703125 -10.566406 18.546875 -9.828125 C 18.335938 -8.773438 17.90625 -7.675781 17.25 -6.53125 C 16.59375 -5.382812 15.796875 -4.316406 14.859375 -3.328125 C 13.921875 -2.347656 12.898438 -1.546875 11.796875 -0.921875 C 10.691406 -0.304688 9.578125 0 8.453125 0 C 7.078125 0 5.941406 -0.332031 5.046875 -1 C 4.148438 -1.675781 3.570312 -2.550781 3.3125 -3.625 C 3.050781 -4.707031 3.15625 -5.851562 3.625 -7.0625 C 4 -7.957031 4.546875 -8.734375 5.265625 -9.390625 C 5.992188 -10.046875 6.765625 -10.671875 7.578125 -11.265625 C 8.390625 -11.859375 9.097656 -12.523438 9.703125 -13.265625 C 10.472656 -14.179688 10.9375 -14.988281 11.09375 -15.6875 C 11.25 -16.382812 11.085938 -16.84375 10.609375 -17.0625 C 10.140625 -17.289062 9.285156 -17.113281 8.046875 -16.53125 C 7.703125 -16.40625 7.332031 -16.273438 6.9375 -16.140625 C 6.550781 -16.015625 6.144531 -15.910156 5.71875 -15.828125 C 5.957031 -14.796875 5.890625 -13.773438 5.515625 -12.765625 C 5.148438 -11.753906 4.5625 -10.929688 3.75 -10.296875 C 2.9375 -9.671875 1.960938 -9.410156 0.828125 -9.515625 C 0.0859375 -9.585938 -0.46875 -9.847656 -0.84375 -10.296875 C -1.226562 -10.742188 -1.441406 -11.253906 -1.484375 -11.828125 C -1.523438 -12.410156 -1.425781 -12.960938 -1.1875 -13.484375 C -0.945312 -14.015625 -0.59375 -14.414062 -0.125 -14.6875 C 0.113281 -14.84375 0.257812 -14.789062 0.3125 -14.53125 C 0.414062 -14.101562 0.625 -13.789062 0.9375 -13.59375 C 1.257812 -13.394531 1.601562 -13.3125 1.96875 -13.34375 C 2.65625 -13.363281 3.160156 -13.609375 3.484375 -14.078125 C 3.816406 -14.554688 3.972656 -15.097656 3.953125 -15.703125 C 3.453125 -15.753906 3.039062 -15.847656 2.71875 -15.984375 C 2.039062 -16.296875 1.609375 -16.734375 1.421875 -17.296875 C 1.234375 -17.867188 1.21875 -18.46875 1.375 -19.09375 C 1.539062 -19.726562 1.78125 -20.285156 2.09375 -20.765625 C 2.351562 -21.109375 2.59375 -21.285156 2.8125 -21.296875 C 3.039062 -21.304688 3.300781 -21.113281 3.59375 -20.71875 C 4.195312 -19.875 4.90625 -19.351562 5.71875 -19.15625 C 6.539062 -18.957031 7.410156 -18.925781 8.328125 -19.0625 C 9.242188 -19.195312 10.15625 -19.375 11.0625 -19.59375 C 11.976562 -19.820312 12.816406 -19.9375 13.578125 -19.9375 Z M 13.578125 -19.9375 "/></g></g><g style="fill:#fed5ff;fill-opacity:1;"><g transform="translate(115.473736, 38.562949)"><path style="stroke:none" d=""/></g></g><g style="fill:#fed5ff;fill-opacity:1;"><g transform="translate(115.462837, 38.562949)"><path style="stroke:none" d="M -1.140625 -8.40625 C -0.828125 -9.75 -0.3125 -11.09375 0.40625 -12.4375 C 1.132812 -13.78125 2.035156 -14.992188 3.109375 -16.078125 C 4.191406 -17.171875 5.40625 -18.050781 6.75 -18.71875 C 8.09375 -19.394531 9.523438 -19.734375 11.046875 -19.734375 C 12.578125 -19.734375 13.679688 -19.335938 14.359375 -18.546875 C 15.046875 -17.753906 15.328125 -16.71875 15.203125 -15.4375 C 15.066406 -14.332031 14.738281 -13.25 14.21875 -12.1875 C 13.707031 -11.132812 13.046875 -10.210938 12.234375 -9.421875 C 11.421875 -8.640625 10.460938 -8.066406 9.359375 -7.703125 C 10.828125 -7.910156 12.222656 -8.351562 13.546875 -9.03125 C 14.878906 -9.71875 15.957031 -10.578125 16.78125 -11.609375 C 16.9375 -11.816406 17.09375 -11.898438 17.25 -11.859375 C 17.40625 -11.816406 17.5 -11.707031 17.53125 -11.53125 C 17.582031 -11.34375 17.585938 -11.101562 17.546875 -10.8125 C 17.503906 -10.519531 17.457031 -10.191406 17.40625 -9.828125 C 17.007812 -7.859375 16.273438 -6.132812 15.203125 -4.65625 C 14.140625 -3.1875 12.816406 -2.039062 11.234375 -1.21875 C 9.660156 -0.40625 7.875 0 5.875 0 C 4.820312 0 3.800781 -0.160156 2.8125 -0.484375 C 1.832031 -0.816406 0.984375 -1.328125 0.265625 -2.015625 C -0.441406 -2.703125 -0.9375 -3.578125 -1.21875 -4.640625 C -1.507812 -5.703125 -1.484375 -6.957031 -1.140625 -8.40625 Z M 6.3125 -13.96875 C 5.101562 -13.96875 4.078125 -13.703125 3.234375 -13.171875 C 2.390625 -12.648438 1.96875 -12.007812 1.96875 -11.25 C 1.96875 -10.507812 2.390625 -9.875 3.234375 -9.34375 C 4.078125 -8.820312 5.101562 -8.5625 6.3125 -8.5625 C 7.5 -8.5625 8.519531 -8.820312 9.375 -9.34375 C 10.226562 -9.875 10.65625 -10.507812 10.65625 -11.25 C 10.65625 -12.007812 10.226562 -12.648438 9.375 -13.171875 C 8.519531 -13.703125 7.5 -13.96875 6.3125 -13.96875 Z M 6.3125 -13.96875 "/></g></g><g style="fill:#fed5ff;fill-opacity:1;"><g transform="translate(132.244087, 38.562949)"><path style="stroke:none" d=""/></g></g><g style="fill:#fed5ff;fill-opacity:1;"><g transform="translate(132.237026, 38.562949)"><path style="stroke:none" d="M 7.5 -29.609375 L 14.609375 -29.609375 C 14.867188 -29.609375 15.046875 -29.539062 15.140625 -29.40625 C 15.234375 -29.269531 15.171875 -29.097656 14.953125 -28.890625 C 14.453125 -28.304688 13.832031 -27.554688 13.09375 -26.640625 C 12.363281 -25.722656 11.585938 -24.695312 10.765625 -23.5625 C 9.953125 -22.425781 9.171875 -21.257812 8.421875 -20.0625 C 7.671875 -18.875 7.019531 -17.710938 6.46875 -16.578125 C 6.257812 -16.128906 6.03125 -15.53125 5.78125 -14.78125 C 5.53125 -14.03125 5.363281 -13.269531 5.28125 -12.5 C 5.207031 -11.738281 5.320312 -11.09375 5.625 -10.5625 C 5.925781 -10.039062 6.523438 -9.78125 7.421875 -9.78125 C 7.992188 -9.78125 8.585938 -9.9375 9.203125 -10.25 C 9.828125 -10.570312 10.363281 -11.023438 10.8125 -11.609375 C 10.96875 -11.816406 11.125 -11.898438 11.28125 -11.859375 C 11.445312 -11.816406 11.539062 -11.707031 11.5625 -11.53125 C 11.644531 -11.132812 11.609375 -10.566406 11.453125 -9.828125 C 11.234375 -8.773438 10.796875 -7.675781 10.140625 -6.53125 C 9.484375 -5.382812 8.6875 -4.316406 7.75 -3.328125 C 6.820312 -2.347656 5.804688 -1.546875 4.703125 -0.921875 C 3.597656 -0.304688 2.476562 0 1.34375 0 C 0.207031 0 -0.695312 -0.398438 -1.375 -1.203125 C -2.0625 -2.003906 -2.421875 -2.957031 -2.453125 -4.0625 C -2.453125 -5.09375 -2.253906 -6.195312 -1.859375 -7.375 C -1.460938 -8.5625 -0.953125 -9.757812 -0.328125 -10.96875 C 0.285156 -12.175781 0.90625 -13.351562 1.53125 -14.5 C 2.164062 -15.644531 2.707031 -16.679688 3.15625 -17.609375 C 3.945312 -19.234375 4.648438 -20.941406 5.265625 -22.734375 C 5.890625 -24.523438 6.332031 -26.523438 6.59375 -28.734375 C 6.664062 -29.316406 6.96875 -29.609375 7.5 -29.609375 Z M 7.5 -29.609375 "/></g></g><g style="fill:#fed5ff;fill-opacity:1;"><g transform="translate(143.053432, 38.562949)"><path style="stroke:none" d=""/></g></g><g style="fill:#fed5ff;fill-opacity:1;"><g transform="translate(143.051468, 38.562949)"><path style="stroke:none" d=""/></g></g><g style="fill:#fed5ff;fill-opacity:1;"><g transform="translate(154.699906, 38.562949)"><path style="stroke:none" d=""/></g></g><g style="fill:#af4c0f;fill-opacity:1;"><g transform="translate(2.223084, 37.690605)"><path style="stroke:none" d="M 27.90625 -24.390625 C 27.351562 -25.753906 26.460938 -26.796875 25.234375 -27.515625 C 24.015625 -28.242188 22.707031 -28.742188 21.3125 -29.015625 C 20.207031 -29.242188 19.078125 -29.332031 17.921875 -29.28125 C 16.765625 -29.226562 15.6875 -29.070312 14.6875 -28.8125 C 13.6875 -28.550781 12.875 -28.1875 12.25 -27.71875 C 11.632812 -27.257812 11.304688 -26.726562 11.265625 -26.125 C 11.222656 -25.519531 11.578125 -24.863281 12.328125 -24.15625 C 13.078125 -23.445312 14.335938 -22.695312 16.109375 -21.90625 C 17.023438 -21.488281 17.984375 -21.066406 18.984375 -20.640625 C 19.984375 -20.222656 20.90625 -19.710938 21.75 -19.109375 C 22.988281 -18.265625 23.882812 -17.253906 24.4375 -16.078125 C 24.988281 -14.910156 25.265625 -13.675781 25.265625 -12.375 C 25.265625 -11.070312 25.023438 -9.800781 24.546875 -8.5625 C 23.972656 -6.957031 23.175781 -5.609375 22.15625 -4.515625 C 21.144531 -3.421875 20 -2.546875 18.71875 -1.890625 C 17.445312 -1.234375 16.132812 -0.753906 14.78125 -0.453125 C 13.425781 -0.148438 12.117188 0 10.859375 0 C 9.984375 0 8.976562 -0.0859375 7.84375 -0.265625 C 6.71875 -0.453125 5.585938 -0.769531 4.453125 -1.21875 C 3.328125 -1.664062 2.316406 -2.269531 1.421875 -3.03125 C 0.523438 -3.800781 -0.101562 -4.773438 -0.46875 -5.953125 C -0.84375 -7.140625 -0.894531 -8.367188 -0.625 -9.640625 C -0.363281 -10.921875 0.09375 -12.085938 0.75 -13.140625 C 1.40625 -14.191406 2.140625 -14.96875 2.953125 -15.46875 C 3.171875 -15.601562 3.382812 -15.660156 3.59375 -15.640625 C 3.800781 -15.628906 3.835938 -15.375 3.703125 -14.875 C 3.441406 -13.976562 3.484375 -13.210938 3.828125 -12.578125 C 4.171875 -11.953125 4.671875 -11.441406 5.328125 -11.046875 C 6.035156 -10.648438 6.941406 -10.347656 8.046875 -10.140625 C 9.148438 -9.929688 10.3125 -9.832031 11.53125 -9.84375 C 12.757812 -9.863281 13.898438 -9.976562 14.953125 -10.1875 C 16.171875 -10.414062 17.1875 -10.8125 18 -11.375 C 18.8125 -11.945312 19.347656 -12.628906 19.609375 -13.421875 C 19.878906 -14.210938 19.765625 -15.0625 19.265625 -15.96875 C 18.765625 -16.875 17.789062 -17.757812 16.34375 -18.625 C 15.5 -19.15625 14.578125 -19.632812 13.578125 -20.0625 C 12.578125 -20.5 11.601562 -20.96875 10.65625 -21.46875 C 9.707031 -21.96875 8.890625 -22.546875 8.203125 -23.203125 C 7.390625 -24.023438 6.890625 -24.921875 6.703125 -25.890625 C 6.523438 -26.867188 6.570312 -27.84375 6.84375 -28.8125 C 7.125 -29.78125 7.570312 -30.679688 8.1875 -31.515625 C 8.8125 -32.347656 9.488281 -33.023438 10.21875 -33.546875 C 11.25 -34.253906 12.375 -34.800781 13.59375 -35.1875 C 14.820312 -35.570312 16.039062 -35.832031 17.25 -35.96875 C 18.457031 -36.113281 19.550781 -36.1875 20.53125 -36.1875 C 22.3125 -36.1875 23.988281 -35.984375 25.5625 -35.578125 C 27.144531 -35.171875 28.410156 -34.507812 29.359375 -33.59375 C 30.285156 -32.71875 30.875 -31.722656 31.125 -30.609375 C 31.375 -29.492188 31.320312 -28.363281 30.96875 -27.21875 C 30.613281 -26.070312 29.988281 -25.035156 29.09375 -24.109375 C 28.820312 -23.847656 28.59375 -23.722656 28.40625 -23.734375 C 28.226562 -23.753906 28.0625 -23.972656 27.90625 -24.390625 Z M 27.90625 -24.390625 "/></g></g><g style="fill:#af4c0f;fill-opacity:1;"><g transform="translate(30.336366, 37.690605)"><path style="stroke:none" d=""/></g></g><g style="fill:#af4c0f;fill-opacity:1;"><g transform="translate(30.324806, 37.690605)"><path style="stroke:none" d="M 19.1875 -19.0625 C 19.082031 -18.851562 18.894531 -18.609375 18.625 -18.328125 C 18.363281 -18.054688 18.113281 -17.816406 17.875 -17.609375 C 17.21875 -16.972656 16.625 -16.132812 16.09375 -15.09375 C 15.570312 -14.050781 15.09375 -12.882812 14.65625 -11.59375 C 14.226562 -10.3125 13.847656 -9.003906 13.515625 -7.671875 C 13.191406 -6.347656 12.90625 -5.078125 12.65625 -3.859375 C 12.40625 -2.648438 12.195312 -1.597656 12.03125 -0.703125 C 11.800781 0.660156 11.625 2.125 11.5 3.6875 C 11.382812 5.25 11.300781 6.953125 11.25 8.796875 C 11.21875 9.140625 11.148438 9.40625 11.046875 9.59375 C 10.941406 9.78125 10.691406 9.875 10.296875 9.875 L 3.3125 9.875 C 2.945312 9.875 2.773438 9.773438 2.796875 9.578125 C 2.828125 9.378906 2.910156 9.171875 3.046875 8.953125 C 3.929688 7.484375 4.859375 5.710938 5.828125 3.640625 C 6.804688 1.578125 7.742188 -0.566406 8.640625 -2.796875 C 7.796875 -1.960938 6.859375 -1.285156 5.828125 -0.765625 C 4.804688 -0.253906 3.71875 0 2.5625 0 C 1.488281 0 0.625 -0.328125 -0.03125 -0.984375 C -0.695312 -1.640625 -1.144531 -2.5 -1.375 -3.5625 C -1.613281 -4.632812 -1.65625 -5.785156 -1.5 -7.015625 C -1.34375 -8.253906 -1 -9.453125 -0.46875 -10.609375 C -0.0507812 -11.503906 0.457031 -12.460938 1.0625 -13.484375 C 1.664062 -14.515625 2.351562 -15.476562 3.125 -16.375 C 3.957031 -17.320312 4.875 -18.117188 5.875 -18.765625 C 6.875 -19.410156 7.957031 -19.734375 9.125 -19.734375 C 9.851562 -19.734375 10.523438 -19.546875 11.140625 -19.171875 C 11.765625 -18.804688 12.273438 -18.242188 12.671875 -17.484375 C 12.773438 -17.296875 12.882812 -17.203125 13 -17.203125 C 13.125 -17.203125 13.195312 -17.347656 13.21875 -17.640625 C 13.25 -17.847656 13.269531 -18.0625 13.28125 -18.28125 C 13.289062 -18.507812 13.285156 -18.71875 13.265625 -18.90625 C 13.265625 -19.113281 13.304688 -19.300781 13.390625 -19.46875 C 13.484375 -19.644531 13.664062 -19.734375 13.9375 -19.734375 C 14.300781 -19.734375 14.710938 -19.640625 15.171875 -19.453125 C 15.628906 -19.273438 16.101562 -19.144531 16.59375 -19.0625 C 17.082031 -18.976562 17.5625 -19.097656 18.03125 -19.421875 C 18.164062 -19.492188 18.285156 -19.5625 18.390625 -19.625 C 18.492188 -19.695312 18.613281 -19.734375 18.75 -19.734375 C 18.9375 -19.734375 19.082031 -19.671875 19.1875 -19.546875 C 19.289062 -19.429688 19.289062 -19.269531 19.1875 -19.0625 Z M 6.359375 -13.96875 C 5.035156 -13.96875 3.90625 -13.703125 2.96875 -13.171875 C 2.039062 -12.648438 1.578125 -12.007812 1.578125 -11.25 C 1.578125 -10.507812 2.039062 -9.875 2.96875 -9.34375 C 3.90625 -8.820312 5.035156 -8.5625 6.359375 -8.5625 C 7.671875 -8.5625 8.800781 -8.820312 9.75 -9.34375 C 10.695312 -9.875 11.171875 -10.507812 11.171875 -11.25 C 11.171875 -12.007812 10.695312 -12.648438 9.75 -13.171875 C 8.800781 -13.703125 7.671875 -13.96875 6.359375 -13.96875 Z M 6.359375 -13.96875 "/></g></g><g style="fill:#af4c0f;fill-opacity:1;"><g transform="translate(48.688087, 37.690605)"><path style="stroke:none" d=""/></g></g><g style="fill:#af4c0f;fill-opacity:1;"><g transform="translate(48.677743, 37.690605)"><path style="stroke:none" d="M 19.890625 -11.609375 C 20.046875 -11.816406 20.203125 -11.898438 20.359375 -11.859375 C 20.523438 -11.816406 20.617188 -11.707031 20.640625 -11.53125 C 20.722656 -11.132812 20.6875 -10.566406 20.53125 -9.828125 C 20.3125 -8.773438 19.875 -7.675781 19.21875 -6.53125 C 18.5625 -5.382812 17.757812 -4.316406 16.8125 -3.328125 C 15.863281 -2.347656 14.835938 -1.546875 13.734375 -0.921875 C 12.628906 -0.304688 11.507812 0 10.375 0 C 9.539062 0 8.785156 -0.257812 8.109375 -0.78125 C 7.441406 -1.3125 7 -2.050781 6.78125 -3 C 5.894531 -2.101562 4.925781 -1.378906 3.875 -0.828125 C 2.820312 -0.273438 1.753906 0 0.671875 0 C -0.484375 0 -1.441406 -0.460938 -2.203125 -1.390625 C -2.972656 -2.328125 -3.238281 -3.597656 -3 -5.203125 C -2.8125 -6.335938 -2.519531 -7.316406 -2.125 -8.140625 C -1.738281 -8.972656 -1.296875 -9.738281 -0.796875 -10.4375 C -0.296875 -11.132812 0.175781 -11.863281 0.625 -12.625 C 1.070312 -13.394531 1.441406 -14.28125 1.734375 -15.28125 C 2.023438 -16.28125 2.144531 -17.488281 2.09375 -18.90625 C 2.09375 -19.113281 2.128906 -19.300781 2.203125 -19.46875 C 2.285156 -19.644531 2.457031 -19.734375 2.71875 -19.734375 C 3.195312 -19.734375 3.800781 -19.628906 4.53125 -19.421875 C 5.269531 -19.210938 6.019531 -19.066406 6.78125 -18.984375 C 7.550781 -18.898438 8.210938 -19.046875 8.765625 -19.421875 C 8.890625 -19.492188 9.003906 -19.5625 9.109375 -19.625 C 9.222656 -19.695312 9.359375 -19.734375 9.515625 -19.734375 C 9.691406 -19.734375 9.832031 -19.660156 9.9375 -19.515625 C 10.050781 -19.367188 10.03125 -19.175781 9.875 -18.9375 C 9.445312 -18.332031 8.90625 -17.757812 8.25 -17.21875 C 7.59375 -16.6875 6.953125 -16.125 6.328125 -15.53125 C 5.710938 -14.9375 5.222656 -14.242188 4.859375 -13.453125 C 4.460938 -12.554688 4.351562 -11.804688 4.53125 -11.203125 C 4.71875 -10.597656 5.082031 -10.175781 5.625 -9.9375 C 6.164062 -9.707031 6.796875 -9.695312 7.515625 -9.90625 C 8.242188 -10.113281 8.957031 -10.597656 9.65625 -11.359375 C 10.351562 -12.128906 10.953125 -13.222656 11.453125 -14.640625 C 11.660156 -15.242188 11.816406 -15.890625 11.921875 -16.578125 C 12.023438 -17.265625 12.0625 -18.039062 12.03125 -18.90625 C 12.007812 -19.113281 12.046875 -19.300781 12.140625 -19.46875 C 12.234375 -19.644531 12.410156 -19.734375 12.671875 -19.734375 C 13.140625 -19.734375 13.734375 -19.628906 14.453125 -19.421875 C 15.179688 -19.210938 15.921875 -19.066406 16.671875 -18.984375 C 17.421875 -18.898438 18.070312 -19.046875 18.625 -19.421875 C 18.757812 -19.492188 18.878906 -19.5625 18.984375 -19.625 C 19.085938 -19.695312 19.207031 -19.734375 19.34375 -19.734375 C 19.550781 -19.734375 19.707031 -19.660156 19.8125 -19.515625 C 19.914062 -19.367188 19.890625 -19.175781 19.734375 -18.9375 C 19.367188 -18.414062 18.910156 -17.914062 18.359375 -17.4375 C 17.804688 -16.96875 17.242188 -16.492188 16.671875 -16.015625 C 16.109375 -15.546875 15.601562 -15.023438 15.15625 -14.453125 C 14.707031 -13.890625 14.40625 -13.226562 14.25 -12.46875 C 14.0625 -11.570312 14.195312 -10.898438 14.65625 -10.453125 C 15.125 -10.003906 15.710938 -9.78125 16.421875 -9.78125 C 17.023438 -9.78125 17.640625 -9.9375 18.265625 -10.25 C 18.898438 -10.570312 19.441406 -11.023438 19.890625 -11.609375 Z M 19.890625 -11.609375 "/></g></g><g style="fill:#af4c0f;fill-opacity:1;"><g transform="translate(68.576181, 37.690605)"><path style="stroke:none" d=""/></g></g><g style="fill:#af4c0f;fill-opacity:1;"><g transform="translate(68.569969, 37.690605)"><path style="stroke:none" d="M 8.203125 -27.234375 C 9.316406 -27.179688 10.1875 -26.816406 10.8125 -26.140625 C 11.445312 -25.472656 11.660156 -24.71875 11.453125 -23.875 C 11.234375 -23.007812 10.65625 -22.289062 9.71875 -21.71875 C 8.789062 -21.15625 7.773438 -20.898438 6.671875 -20.953125 C 5.566406 -21.035156 4.695312 -21.40625 4.0625 -22.0625 C 3.4375 -22.71875 3.226562 -23.484375 3.4375 -24.359375 C 3.644531 -25.222656 4.210938 -25.9375 5.140625 -26.5 C 6.078125 -27.070312 7.097656 -27.316406 8.203125 -27.234375 Z M 10.1875 -11.609375 C 10.34375 -11.816406 10.5 -11.898438 10.65625 -11.859375 C 10.8125 -11.816406 10.90625 -11.707031 10.9375 -11.53125 C 11.007812 -11.132812 10.96875 -10.566406 10.8125 -9.828125 C 10.601562 -8.773438 10.171875 -7.675781 9.515625 -6.53125 C 8.859375 -5.382812 8.0625 -4.316406 7.125 -3.328125 C 6.1875 -2.347656 5.164062 -1.546875 4.0625 -0.921875 C 2.957031 -0.304688 1.835938 0 0.703125 0 C -0.472656 0 -1.441406 -0.460938 -2.203125 -1.390625 C -2.972656 -2.328125 -3.238281 -3.597656 -3 -5.203125 C -2.8125 -6.335938 -2.519531 -7.316406 -2.125 -8.140625 C -1.738281 -8.972656 -1.296875 -9.738281 -0.796875 -10.4375 C -0.296875 -11.132812 0.175781 -11.863281 0.625 -12.625 C 1.070312 -13.394531 1.441406 -14.28125 1.734375 -15.28125 C 2.023438 -16.28125 2.144531 -17.488281 2.09375 -18.90625 C 2.09375 -19.113281 2.140625 -19.300781 2.234375 -19.46875 C 2.328125 -19.644531 2.503906 -19.734375 2.765625 -19.734375 C 3.109375 -19.734375 3.539062 -19.664062 4.0625 -19.53125 C 4.59375 -19.40625 5.148438 -19.28125 5.734375 -19.15625 C 6.328125 -19.039062 6.898438 -18.988281 7.453125 -19 C 8.003906 -19.019531 8.492188 -19.160156 8.921875 -19.421875 C 9.054688 -19.492188 9.175781 -19.5625 9.28125 -19.625 C 9.382812 -19.695312 9.5 -19.734375 9.625 -19.734375 C 9.84375 -19.734375 10.003906 -19.660156 10.109375 -19.515625 C 10.210938 -19.367188 10.1875 -19.175781 10.03125 -18.9375 C 9.65625 -18.414062 9.191406 -17.914062 8.640625 -17.4375 C 8.085938 -16.96875 7.53125 -16.492188 6.96875 -16.015625 C 6.40625 -15.546875 5.898438 -15.023438 5.453125 -14.453125 C 5.003906 -13.890625 4.695312 -13.226562 4.53125 -12.46875 C 4.351562 -11.570312 4.492188 -10.898438 4.953125 -10.453125 C 5.410156 -10.003906 5.992188 -9.78125 6.703125 -9.78125 C 7.316406 -9.78125 7.9375 -9.9375 8.5625 -10.25 C 9.195312 -10.570312 9.738281 -11.023438 10.1875 -11.609375 Z M 10.1875 -11.609375 "/></g></g><g style="fill:#af4c0f;fill-opacity:1;"><g transform="translate(78.753563, 37.690605)"><path style="stroke:none" d=""/></g></g><g style="fill:#af4c0f;fill-opacity:1;"><g transform="translate(78.752905, 37.690605)"><path style="stroke:none" d="M 13.578125 -19.9375 C 14.710938 -19.957031 15.5625 -19.78125 16.125 -19.40625 C 16.6875 -19.039062 17.019531 -18.648438 17.125 -18.234375 C 17.28125 -17.734375 17.203125 -17.195312 16.890625 -16.625 C 16.578125 -16.0625 16.128906 -15.5 15.546875 -14.9375 C 14.972656 -14.375 14.367188 -13.84375 13.734375 -13.34375 C 13.179688 -12.914062 12.800781 -12.425781 12.59375 -11.875 C 12.382812 -11.320312 12.414062 -10.832031 12.6875 -10.40625 C 12.96875 -9.988281 13.554688 -9.78125 14.453125 -9.78125 C 15.054688 -9.78125 15.671875 -9.9375 16.296875 -10.25 C 16.929688 -10.570312 17.472656 -11.023438 17.921875 -11.609375 C 18.078125 -11.816406 18.234375 -11.898438 18.390625 -11.859375 C 18.546875 -11.816406 18.640625 -11.707031 18.671875 -11.53125 C 18.742188 -11.132812 18.703125 -10.566406 18.546875 -9.828125 C 18.335938 -8.773438 17.90625 -7.675781 17.25 -6.53125 C 16.59375 -5.382812 15.796875 -4.316406 14.859375 -3.328125 C 13.921875 -2.347656 12.898438 -1.546875 11.796875 -0.921875 C 10.691406 -0.304688 9.578125 0 8.453125 0 C 7.078125 0 5.941406 -0.332031 5.046875 -1 C 4.148438 -1.675781 3.570312 -2.550781 3.3125 -3.625 C 3.050781 -4.707031 3.15625 -5.851562 3.625 -7.0625 C 4 -7.957031 4.546875 -8.734375 5.265625 -9.390625 C 5.992188 -10.046875 6.765625 -10.671875 7.578125 -11.265625 C 8.390625 -11.859375 9.097656 -12.523438 9.703125 -13.265625 C 10.472656 -14.179688 10.9375 -14.988281 11.09375 -15.6875 C 11.25 -16.382812 11.085938 -16.84375 10.609375 -17.0625 C 10.140625 -17.289062 9.285156 -17.113281 8.046875 -16.53125 C 7.703125 -16.40625 7.332031 -16.273438 6.9375 -16.140625 C 6.550781 -16.015625 6.144531 -15.910156 5.71875 -15.828125 C 5.957031 -14.796875 5.890625 -13.773438 5.515625 -12.765625 C 5.148438 -11.753906 4.5625 -10.929688 3.75 -10.296875 C 2.9375 -9.671875 1.960938 -9.410156 0.828125 -9.515625 C 0.0859375 -9.585938 -0.46875 -9.847656 -0.84375 -10.296875 C -1.226562 -10.742188 -1.441406 -11.253906 -1.484375 -11.828125 C -1.523438 -12.410156 -1.425781 -12.960938 -1.1875 -13.484375 C -0.945312 -14.015625 -0.59375 -14.414062 -0.125 -14.6875 C 0.113281 -14.84375 0.257812 -14.789062 0.3125 -14.53125 C 0.414062 -14.101562 0.625 -13.789062 0.9375 -13.59375 C 1.257812 -13.394531 1.601562 -13.3125 1.96875 -13.34375 C 2.65625 -13.363281 3.160156 -13.609375 3.484375 -14.078125 C 3.816406 -14.554688 3.972656 -15.097656 3.953125 -15.703125 C 3.453125 -15.753906 3.039062 -15.847656 2.71875 -15.984375 C 2.039062 -16.296875 1.609375 -16.734375 1.421875 -17.296875 C 1.234375 -17.867188 1.21875 -18.46875 1.375 -19.09375 C 1.539062 -19.726562 1.78125 -20.285156 2.09375 -20.765625 C 2.351562 -21.109375 2.59375 -21.285156 2.8125 -21.296875 C 3.039062 -21.304688 3.300781 -21.113281 3.59375 -20.71875 C 4.195312 -19.875 4.90625 -19.351562 5.71875 -19.15625 C 6.539062 -18.957031 7.410156 -18.925781 8.328125 -19.0625 C 9.242188 -19.195312 10.15625 -19.375 11.0625 -19.59375 C 11.976562 -19.820312 12.816406 -19.9375 13.578125 -19.9375 Z M 13.578125 -19.9375 "/></g></g><g style="fill:#af4c0f;fill-opacity:1;"><g transform="translate(96.682592, 37.690605)"><path style="stroke:none" d=""/></g></g><g style="fill:#af4c0f;fill-opacity:1;"><g transform="translate(96.671707, 37.690605)"><path style="stroke:none" d="M 13.578125 -19.9375 C 14.710938 -19.957031 15.5625 -19.78125 16.125 -19.40625 C 16.6875 -19.039062 17.019531 -18.648438 17.125 -18.234375 C 17.28125 -17.734375 17.203125 -17.195312 16.890625 -16.625 C 16.578125 -16.0625 16.128906 -15.5 15.546875 -14.9375 C 14.972656 -14.375 14.367188 -13.84375 13.734375 -13.34375 C 13.179688 -12.914062 12.800781 -12.425781 12.59375 -11.875 C 12.382812 -11.320312 12.414062 -10.832031 12.6875 -10.40625 C 12.96875 -9.988281 13.554688 -9.78125 14.453125 -9.78125 C 15.054688 -9.78125 15.671875 -9.9375 16.296875 -10.25 C 16.929688 -10.570312 17.472656 -11.023438 17.921875 -11.609375 C 18.078125 -11.816406 18.234375 -11.898438 18.390625 -11.859375 C 18.546875 -11.816406 18.640625 -11.707031 18.671875 -11.53125 C 18.742188 -11.132812 18.703125 -10.566406 18.546875 -9.828125 C 18.335938 -8.773438 17.90625 -7.675781 17.25 -6.53125 C 16.59375 -5.382812 15.796875 -4.316406 14.859375 -3.328125 C 13.921875 -2.347656 12.898438 -1.546875 11.796875 -0.921875 C 10.691406 -0.304688 9.578125 0 8.453125 0 C 7.078125 0 5.941406 -0.332031 5.046875 -1 C 4.148438 -1.675781 3.570312 -2.550781 3.3125 -3.625 C 3.050781 -4.707031 3.15625 -5.851562 3.625 -7.0625 C 4 -7.957031 4.546875 -8.734375 5.265625 -9.390625 C 5.992188 -10.046875 6.765625 -10.671875 7.578125 -11.265625 C 8.390625 -11.859375 9.097656 -12.523438 9.703125 -13.265625 C 10.472656 -14.179688 10.9375 -14.988281 11.09375 -15.6875 C 11.25 -16.382812 11.085938 -16.84375 10.609375 -17.0625 C 10.140625 -17.289062 9.285156 -17.113281 8.046875 -16.53125 C 7.703125 -16.40625 7.332031 -16.273438 6.9375 -16.140625 C 6.550781 -16.015625 6.144531 -15.910156 5.71875 -15.828125 C 5.957031 -14.796875 5.890625 -13.773438 5.515625 -12.765625 C 5.148438 -11.753906 4.5625 -10.929688 3.75 -10.296875 C 2.9375 -9.671875 1.960938 -9.410156 0.828125 -9.515625 C 0.0859375 -9.585938 -0.46875 -9.847656 -0.84375 -10.296875 C -1.226562 -10.742188 -1.441406 -11.253906 -1.484375 -11.828125 C -1.523438 -12.410156 -1.425781 -12.960938 -1.1875 -13.484375 C -0.945312 -14.015625 -0.59375 -14.414062 -0.125 -14.6875 C 0.113281 -14.84375 0.257812 -14.789062 0.3125 -14.53125 C 0.414062 -14.101562 0.625 -13.789062 0.9375 -13.59375 C 1.257812 -13.394531 1.601562 -13.3125 1.96875 -13.34375 C 2.65625 -13.363281 3.160156 -13.609375 3.484375 -14.078125 C 3.816406 -14.554688 3.972656 -15.097656 3.953125 -15.703125 C 3.453125 -15.753906 3.039062 -15.847656 2.71875 -15.984375 C 2.039062 -16.296875 1.609375 -16.734375 1.421875 -17.296875 C 1.234375 -17.867188 1.21875 -18.46875 1.375 -19.09375 C 1.539062 -19.726562 1.78125 -20.285156 2.09375 -20.765625 C 2.351562 -21.109375 2.59375 -21.285156 2.8125 -21.296875 C 3.039062 -21.304688 3.300781 -21.113281 3.59375 -20.71875 C 4.195312 -19.875 4.90625 -19.351562 5.71875 -19.15625 C 6.539062 -18.957031 7.410156 -18.925781 8.328125 -19.0625 C 9.242188 -19.195312 10.15625 -19.375 11.0625 -19.59375 C 11.976562 -19.820312 12.816406 -19.9375 13.578125 -19.9375 Z M 13.578125 -19.9375 "/></g></g><g style="fill:#af4c0f;fill-opacity:1;"><g transform="translate(114.601394, 37.690605)"><path style="stroke:none" d=""/></g></g><g style="fill:#af4c0f;fill-opacity:1;"><g transform="translate(114.590494, 37.690605)"><path style="stroke:none" d="M -1.140625 -8.40625 C -0.828125 -9.75 -0.3125 -11.09375 0.40625 -12.4375 C 1.132812 -13.78125 2.035156 -14.992188 3.109375 -16.078125 C 4.191406 -17.171875 5.40625 -18.050781 6.75 -18.71875 C 8.09375 -19.394531 9.523438 -19.734375 11.046875 -19.734375 C 12.578125 -19.734375 13.679688 -19.335938 14.359375 -18.546875 C 15.046875 -17.753906 15.328125 -16.71875 15.203125 -15.4375 C 15.066406 -14.332031 14.738281 -13.25 14.21875 -12.1875 C 13.707031 -11.132812 13.046875 -10.210938 12.234375 -9.421875 C 11.421875 -8.640625 10.460938 -8.066406 9.359375 -7.703125 C 10.828125 -7.910156 12.222656 -8.351562 13.546875 -9.03125 C 14.878906 -9.71875 15.957031 -10.578125 16.78125 -11.609375 C 16.9375 -11.816406 17.09375 -11.898438 17.25 -11.859375 C 17.40625 -11.816406 17.5 -11.707031 17.53125 -11.53125 C 17.582031 -11.34375 17.585938 -11.101562 17.546875 -10.8125 C 17.503906 -10.519531 17.457031 -10.191406 17.40625 -9.828125 C 17.007812 -7.859375 16.273438 -6.132812 15.203125 -4.65625 C 14.140625 -3.1875 12.816406 -2.039062 11.234375 -1.21875 C 9.660156 -0.40625 7.875 0 5.875 0 C 4.820312 0 3.800781 -0.160156 2.8125 -0.484375 C 1.832031 -0.816406 0.984375 -1.328125 0.265625 -2.015625 C -0.441406 -2.703125 -0.9375 -3.578125 -1.21875 -4.640625 C -1.507812 -5.703125 -1.484375 -6.957031 -1.140625 -8.40625 Z M 6.3125 -13.96875 C 5.101562 -13.96875 4.078125 -13.703125 3.234375 -13.171875 C 2.390625 -12.648438 1.96875 -12.007812 1.96875 -11.25 C 1.96875 -10.507812 2.390625 -9.875 3.234375 -9.34375 C 4.078125 -8.820312 5.101562 -8.5625 6.3125 -8.5625 C 7.5 -8.5625 8.519531 -8.820312 9.375 -9.34375 C 10.226562 -9.875 10.65625 -10.507812 10.65625 -11.25 C 10.65625 -12.007812 10.226562 -12.648438 9.375 -13.171875 C 8.519531 -13.703125 7.5 -13.96875 6.3125 -13.96875 Z M 6.3125 -13.96875 "/></g></g><g style="fill:#af4c0f;fill-opacity:1;"><g transform="translate(131.371744, 37.690605)"><path style="stroke:none" d=""/></g></g><g style="fill:#af4c0f;fill-opacity:1;"><g transform="translate(131.364712, 37.690605)"><path style="stroke:none" d="M 7.5 -29.609375 L 14.609375 -29.609375 C 14.867188 -29.609375 15.046875 -29.539062 15.140625 -29.40625 C 15.234375 -29.269531 15.171875 -29.097656 14.953125 -28.890625 C 14.453125 -28.304688 13.832031 -27.554688 13.09375 -26.640625 C 12.363281 -25.722656 11.585938 -24.695312 10.765625 -23.5625 C 9.953125 -22.425781 9.171875 -21.257812 8.421875 -20.0625 C 7.671875 -18.875 7.019531 -17.710938 6.46875 -16.578125 C 6.257812 -16.128906 6.03125 -15.53125 5.78125 -14.78125 C 5.53125 -14.03125 5.363281 -13.269531 5.28125 -12.5 C 5.207031 -11.738281 5.320312 -11.09375 5.625 -10.5625 C 5.925781 -10.039062 6.523438 -9.78125 7.421875 -9.78125 C 7.992188 -9.78125 8.585938 -9.9375 9.203125 -10.25 C 9.828125 -10.570312 10.363281 -11.023438 10.8125 -11.609375 C 10.96875 -11.816406 11.125 -11.898438 11.28125 -11.859375 C 11.445312 -11.816406 11.539062 -11.707031 11.5625 -11.53125 C 11.644531 -11.132812 11.609375 -10.566406 11.453125 -9.828125 C 11.234375 -8.773438 10.796875 -7.675781 10.140625 -6.53125 C 9.484375 -5.382812 8.6875 -4.316406 7.75 -3.328125 C 6.820312 -2.347656 5.804688 -1.546875 4.703125 -0.921875 C 3.597656 -0.304688 2.476562 0 1.34375 0 C 0.207031 0 -0.695312 -0.398438 -1.375 -1.203125 C -2.0625 -2.003906 -2.421875 -2.957031 -2.453125 -4.0625 C -2.453125 -5.09375 -2.253906 -6.195312 -1.859375 -7.375 C -1.460938 -8.5625 -0.953125 -9.757812 -0.328125 -10.96875 C 0.285156 -12.175781 0.90625 -13.351562 1.53125 -14.5 C 2.164062 -15.644531 2.707031 -16.679688 3.15625 -17.609375 C 3.945312 -19.234375 4.648438 -20.941406 5.265625 -22.734375 C 5.890625 -24.523438 6.332031 -26.523438 6.59375 -28.734375 C 6.664062 -29.316406 6.96875 -29.609375 7.5 -29.609375 Z M 7.5 -29.609375 "/></g></g><g style="fill:#af4c0f;fill-opacity:1;"><g transform="translate(142.181119, 37.690605)"><path style="stroke:none" d=""/></g></g><g style="fill:#af4c0f;fill-opacity:1;"><g transform="translate(142.179126, 37.690605)"><path style="stroke:none" d=""/></g></g><g style="fill:#af4c0f;fill-opacity:1;"><g transform="translate(153.827564, 37.690605)"><path style="stroke:none" d=""/></g></g></g></g></g></g></g><g transform="matrix(1,0,0,1,22,126)"><g clip-path="url(#163db72cf9)"><g style="fill:#f3a6c9;fill-opacity:1;"><g transform="translate(9.16437, 64.690182)"><path style="stroke:none" d="M 70.308594 -21.601562 C 70.9375 -22.589844 71.738281 -23.3125 72.710938 -23.765625 C 74.050781 -24.394531 75.421875 -24.4375 76.820312 -23.894531 C 77.949219 -23.453125 78.945312 -22.722656 79.808594 -21.695312 C 80.492188 -20.886719 81.015625 -20.023438 81.382812 -19.109375 L 82.222656 -17.003906 L 81.023438 -15.082031 C 80.65625 -14.496094 80.1875 -13.578125 79.613281 -12.328125 C 78.90625 -10.789062 78.066406 -9.160156 77.09375 -7.4375 C 76.054688 -5.597656 74.84375 -3.839844 73.460938 -2.167969 C 71.929688 -0.3125 70.195312 1.210938 68.257812 2.402344 C 66.019531 3.78125 63.523438 4.46875 60.765625 4.46875 C 58.816406 4.46875 57.058594 4.101562 55.484375 3.363281 C 53.8125 2.585938 52.421875 1.429688 51.304688 -0.0976562 C 49.398438 -2.703125 48.445312 -6.082031 48.445312 -10.230469 C 48.445312 -12.617188 48.738281 -14.949219 49.320312 -17.226562 C 49.855469 -19.316406 50.484375 -21.285156 51.203125 -23.136719 L 52.921875 -27.550781 C 53.097656 -28.007812 53.222656 -28.390625 53.300781 -28.695312 C 53.328125 -28.796875 53.34375 -28.878906 53.351562 -28.941406 L 53.355469 -28.953125 C 53.351562 -28.933594 53.351562 -28.90625 53.351562 -28.875 C 53.351562 -28.710938 53.382812 -28.523438 53.445312 -28.3125 C 53.570312 -27.878906 53.789062 -27.476562 54.105469 -27.109375 C 54.480469 -26.675781 54.933594 -26.355469 55.460938 -26.152344 C 55.8125 -26.015625 56.15625 -25.949219 56.488281 -25.949219 C 56.863281 -25.949219 57.207031 -26.023438 57.511719 -26.171875 C 57.640625 -26.230469 57.722656 -26.28125 57.761719 -26.320312 C 57.726562 -26.285156 57.644531 -26.164062 57.515625 -25.953125 C 57.285156 -25.585938 57.035156 -25.105469 56.761719 -24.515625 C 56.136719 -23.164062 55.410156 -21.183594 54.578125 -18.578125 C 53.71875 -15.886719 52.738281 -12.367188 51.640625 -8.015625 C 50.738281 -4.414062 49.195312 -1.941406 47.011719 -0.605469 C 45.152344 0.535156 43.21875 1.105469 41.210938 1.105469 C 37.78125 1.105469 35.253906 0.292969 33.636719 -1.324219 C 32.015625 -2.945312 31.207031 -5.097656 31.207031 -7.78125 C 31.207031 -9.480469 31.464844 -11.304688 31.988281 -13.25 C 32.417969 -14.851562 32.898438 -16.539062 33.421875 -18.304688 C 33.914062 -19.957031 34.359375 -21.621094 34.761719 -23.292969 C 35.101562 -24.703125 35.269531 -26.027344 35.269531 -27.261719 C 35.269531 -27.671875 35.253906 -27.96875 35.21875 -28.15625 C 35.222656 -28.128906 35.238281 -28.082031 35.265625 -28.011719 C 35.351562 -27.777344 35.480469 -27.542969 35.652344 -27.3125 C 35.871094 -27.015625 36.160156 -26.765625 36.523438 -26.558594 C 37.003906 -26.292969 37.515625 -26.160156 38.054688 -26.160156 C 38.777344 -26.160156 39.410156 -26.433594 39.953125 -26.976562 C 40.152344 -27.175781 40.304688 -27.382812 40.40625 -27.601562 C 40.433594 -27.652344 40.449219 -27.699219 40.464844 -27.738281 L 40.460938 -27.730469 C 38.828125 -19.703125 36.519531 -13.148438 33.53125 -8.074219 C 30.414062 -2.765625 26.761719 1.132812 22.578125 3.628906 C 18.34375 6.148438 13.832031 7.410156 9.039062 7.410156 C 5.464844 7.410156 2.410156 6.605469 -0.121094 4.996094 C -2.628906 3.398438 -4.511719 1.3125 -5.769531 -1.265625 C -6.957031 -3.707031 -7.550781 -6.226562 -7.550781 -8.832031 C -7.550781 -11.371094 -7.039062 -13.804688 -6.015625 -16.132812 C -4.945312 -18.566406 -3.414062 -20.566406 -1.421875 -22.125 C 0.789062 -23.855469 3.339844 -24.722656 6.238281 -24.722656 C 7.632812 -24.722656 8.824219 -24.324219 9.816406 -23.53125 C 10.5 -22.988281 11.011719 -22.308594 11.347656 -21.5 C 11.621094 -20.84375 11.757812 -20.148438 11.757812 -19.414062 C 11.757812 -19.390625 11.757812 -19.375 11.757812 -19.359375 L 11.757812 -19.367188 C 11.75 -19.394531 11.738281 -19.421875 11.726562 -19.449219 L 11.71875 -19.464844 C 11.757812 -19.417969 11.820312 -19.371094 11.898438 -19.3125 C 12.484375 -18.902344 13.304688 -18.695312 14.367188 -18.695312 C 15.558594 -18.695312 16.683594 -18.988281 17.738281 -19.570312 C 19.039062 -20.292969 20.222656 -21.242188 21.292969 -22.417969 C 22.460938 -23.699219 23.472656 -25.121094 24.328125 -26.683594 C 25.195312 -28.261719 25.851562 -29.824219 26.296875 -31.371094 C 26.71875 -32.835938 26.929688 -34.105469 26.929688 -35.183594 C 26.929688 -35.675781 26.886719 -36.066406 26.796875 -36.355469 C 26.777344 -36.425781 26.757812 -36.480469 26.734375 -36.519531 L 26.730469 -36.527344 C 26.738281 -36.519531 26.742188 -36.511719 26.75 -36.503906 C 26.773438 -36.476562 26.808594 -36.457031 26.851562 -36.4375 C 26.8125 -36.453125 26.714844 -36.460938 26.5625 -36.460938 C 26.066406 -36.460938 25.59375 -36.25 25.148438 -35.828125 C 24.769531 -35.46875 24.582031 -34.835938 24.582031 -33.921875 C 24.582031 -33.792969 24.59375 -33.699219 24.613281 -33.636719 C 24.613281 -33.636719 24.609375 -33.640625 24.609375 -33.640625 C 24.535156 -33.730469 24.417969 -33.816406 24.253906 -33.898438 C 24.058594 -33.996094 23.871094 -34.042969 23.6875 -34.042969 L 26.578125 -34.042969 L 27.761719 -31.410156 C 28.714844 -29.292969 28.660156 -26.96875 27.597656 -24.441406 C 26.714844 -22.347656 25.25 -20.554688 23.203125 -19.0625 C 21.039062 -17.484375 18.421875 -16.699219 15.347656 -16.699219 C 13.34375 -16.699219 11.484375 -17.074219 9.769531 -17.828125 C 8.042969 -18.585938 6.507812 -19.703125 5.171875 -21.175781 C 2.578125 -24.039062 1.277344 -27.679688 1.277344 -32.097656 C 1.277344 -35.398438 1.945312 -38.539062 3.28125 -41.523438 C 4.605469 -44.492188 6.511719 -47.121094 8.996094 -49.40625 C 11.453125 -51.664062 14.375 -53.433594 17.765625 -54.710938 C 21.125 -55.976562 24.828125 -56.609375 28.875 -56.609375 C 36.257812 -56.609375 42.0625 -54.429688 46.28125 -50.0625 C 50.335938 -45.863281 52.71875 -40.335938 53.433594 -33.472656 L 48.988281 -33.011719 L 44.960938 -34.945312 C 46.238281 -37.597656 47.753906 -40.167969 49.507812 -42.660156 C 51.289062 -45.191406 53.230469 -47.457031 55.335938 -49.460938 C 57.523438 -51.535156 59.796875 -53.207031 62.160156 -54.472656 C 64.828125 -55.898438 67.515625 -56.609375 70.226562 -56.609375 C 74.394531 -56.609375 77.488281 -55.308594 79.503906 -52.707031 C 81.25 -50.453125 82.121094 -47.859375 82.121094 -44.925781 C 82.121094 -42.976562 81.769531 -41.070312 81.0625 -39.203125 C 80.351562 -37.332031 79.414062 -35.746094 78.25 -34.445312 C 76.566406 -32.566406 74.640625 -31.625 72.46875 -31.625 C 71.027344 -31.625 69.742188 -32.015625 68.605469 -32.796875 C 68.992188 -32.53125 69.417969 -32.398438 69.875 -32.398438 C 70.398438 -32.398438 70.867188 -32.527344 71.273438 -32.792969 C 71.378906 -32.859375 71.46875 -32.925781 71.535156 -32.996094 L 71.535156 -32.988281 C 71.179688 -32.496094 70.839844 -31.789062 70.515625 -30.863281 C 70.109375 -29.707031 69.761719 -28.464844 69.472656 -27.148438 C 69.171875 -25.769531 68.933594 -24.457031 68.765625 -23.21875 C 68.605469 -22.066406 68.527344 -21.171875 68.527344 -20.535156 C 68.527344 -20.015625 68.578125 -19.683594 68.675781 -19.539062 C 68.492188 -19.808594 68.265625 -19.996094 68.007812 -20.105469 C 67.980469 -20.113281 67.960938 -20.121094 67.945312 -20.125 C 67.949219 -20.125 67.960938 -20.121094 67.976562 -20.121094 C 68.066406 -20.105469 68.183594 -20.097656 68.332031 -20.097656 C 68.980469 -20.097656 69.65625 -20.625 70.363281 -21.683594 Z M 77.796875 -16.726562 C 76.644531 -14.996094 75.316406 -13.664062 73.8125 -12.730469 C 72.132812 -11.683594 70.304688 -11.160156 68.332031 -11.160156 C 66.949219 -11.160156 65.710938 -11.386719 64.613281 -11.835938 C 63.242188 -12.398438 62.148438 -13.273438 61.332031 -14.453125 C 60.171875 -16.128906 59.589844 -18.15625 59.589844 -20.535156 C 59.589844 -21.582031 59.695312 -22.882812 59.910156 -24.4375 C 60.113281 -25.910156 60.390625 -27.449219 60.746094 -29.058594 C 61.109375 -30.730469 61.558594 -32.320312 62.085938 -33.824219 C 62.695312 -35.5625 63.429688 -37.027344 64.289062 -38.21875 C 64.925781 -39.097656 65.640625 -39.792969 66.441406 -40.308594 C 67.503906 -40.992188 68.648438 -41.332031 69.875 -41.332031 C 71.265625 -41.332031 72.53125 -40.941406 73.667969 -40.160156 C 73.277344 -40.429688 72.878906 -40.5625 72.46875 -40.5625 C 72.132812 -40.5625 71.835938 -40.492188 71.582031 -40.351562 C 71.53125 -40.328125 71.496094 -40.304688 71.476562 -40.289062 C 71.503906 -40.3125 71.542969 -40.351562 71.589844 -40.40625 C 72.015625 -40.878906 72.386719 -41.535156 72.707031 -42.375 C 73.027344 -43.21875 73.1875 -44.070312 73.1875 -44.925781 C 73.1875 -45.820312 72.9375 -46.59375 72.4375 -47.234375 C 72.394531 -47.292969 72.285156 -47.355469 72.113281 -47.421875 C 71.664062 -47.589844 71.035156 -47.675781 70.226562 -47.675781 C 69.007812 -47.675781 67.726562 -47.3125 66.375 -46.589844 C 64.722656 -45.707031 63.09375 -44.503906 61.496094 -42.984375 C 59.816406 -41.386719 58.253906 -39.566406 56.8125 -37.515625 C 55.34375 -35.429688 54.078125 -33.28125 53.015625 -31.074219 L 46.179688 -16.851562 L 44.546875 -32.546875 C 44.042969 -37.367188 42.480469 -41.132812 39.855469 -43.851562 C 37.390625 -46.402344 33.730469 -47.675781 28.875 -47.675781 C 25.914062 -47.675781 23.261719 -47.234375 20.917969 -46.351562 C 18.609375 -45.480469 16.652344 -44.304688 15.042969 -42.828125 C 13.464844 -41.375 12.261719 -39.726562 11.4375 -37.882812 C 10.621094 -36.054688 10.214844 -34.128906 10.214844 -32.097656 C 10.214844 -29.976562 10.738281 -28.339844 11.789062 -27.179688 C 12.273438 -26.648438 12.796875 -26.257812 13.359375 -26.011719 C 13.933594 -25.757812 14.59375 -25.632812 15.347656 -25.632812 C 16.480469 -25.632812 17.34375 -25.851562 17.9375 -26.285156 C 18.648438 -26.800781 19.121094 -27.34375 19.359375 -27.910156 C 19.445312 -28.109375 19.488281 -28.238281 19.492188 -28.300781 C 19.480469 -28.132812 19.523438 -27.945312 19.613281 -27.742188 L 23.6875 -29.574219 L 23.6875 -25.109375 C 22.480469 -25.109375 21.351562 -25.367188 20.300781 -25.882812 C 19.285156 -26.386719 18.402344 -27.101562 17.652344 -28.035156 C 16.316406 -29.695312 15.644531 -31.65625 15.644531 -33.921875 C 15.644531 -37.398438 16.765625 -40.199219 19.003906 -42.316406 C 21.175781 -44.371094 23.695312 -45.398438 26.5625 -45.398438 C 27.90625 -45.398438 29.144531 -45.160156 30.285156 -44.6875 C 31.511719 -44.175781 32.566406 -43.417969 33.453125 -42.410156 C 35.0625 -40.585938 35.867188 -38.175781 35.867188 -35.183594 C 35.867188 -33.269531 35.539062 -31.175781 34.886719 -28.902344 C 34.257812 -26.710938 33.347656 -24.539062 32.160156 -22.375 C 30.960938 -20.199219 29.542969 -18.210938 27.90625 -16.40625 C 26.171875 -14.503906 24.226562 -12.953125 22.070312 -11.753906 C 19.667969 -10.425781 17.101562 -9.757812 14.367188 -9.757812 C 11.410156 -9.757812 8.871094 -10.511719 6.742188 -12.015625 C 5.496094 -12.894531 4.539062 -13.953125 3.867188 -15.191406 C 3.171875 -16.480469 2.820312 -17.886719 2.820312 -19.414062 C 2.820312 -18.957031 2.914062 -18.507812 3.097656 -18.0625 C 3.347656 -17.464844 3.726562 -16.960938 4.234375 -16.554688 C 4.875 -16.042969 5.542969 -15.785156 6.238281 -15.785156 C 5.394531 -15.785156 4.679688 -15.554688 4.085938 -15.089844 C 3.273438 -14.453125 2.632812 -13.601562 2.164062 -12.53125 C 1.644531 -11.355469 1.382812 -10.121094 1.382812 -8.832031 C 1.382812 -7.601562 1.675781 -6.386719 2.265625 -5.179688 C 2.785156 -4.113281 3.585938 -3.234375 4.675781 -2.542969 C 5.742188 -1.863281 7.199219 -1.523438 9.039062 -1.523438 C 12.191406 -1.523438 15.179688 -2.367188 18.003906 -4.046875 C 20.875 -5.761719 23.484375 -8.609375 25.828125 -12.601562 C 28.3125 -16.824219 30.277344 -22.488281 31.726562 -29.601562 C 32.050781 -31.113281 32.6875 -32.347656 33.636719 -33.296875 C 34.835938 -34.496094 36.308594 -35.09375 38.054688 -35.09375 C 39.066406 -35.09375 40.007812 -34.851562 40.882812 -34.359375 C 41.644531 -33.9375 42.296875 -33.351562 42.84375 -32.613281 C 43.417969 -31.835938 43.804688 -30.882812 44.011719 -29.753906 C 44.140625 -29.039062 44.207031 -28.210938 44.207031 -27.261719 C 44.207031 -25.320312 43.953125 -23.304688 43.453125 -21.210938 C 43.011719 -19.378906 42.523438 -17.5625 41.988281 -15.757812 C 41.484375 -14.066406 41.027344 -12.457031 40.617188 -10.929688 C 40.300781 -9.746094 40.140625 -8.695312 40.140625 -7.78125 C 40.140625 -7.546875 40.15625 -7.390625 40.183594 -7.308594 C 40.148438 -7.417969 40.070312 -7.527344 39.953125 -7.644531 C 39.804688 -7.796875 39.652344 -7.90625 39.507812 -7.984375 C 39.484375 -7.992188 39.46875 -8 39.460938 -8.003906 C 39.484375 -7.996094 39.515625 -7.984375 39.558594 -7.976562 C 39.933594 -7.878906 40.484375 -7.832031 41.210938 -7.832031 C 41.539062 -7.832031 41.917969 -7.964844 42.347656 -8.226562 C 42.257812 -8.171875 42.191406 -8.121094 42.152344 -8.078125 C 42.1875 -8.117188 42.234375 -8.191406 42.296875 -8.296875 C 42.539062 -8.734375 42.765625 -9.367188 42.976562 -10.207031 C 44.121094 -14.734375 45.148438 -18.429688 46.066406 -21.296875 C 47.007812 -24.253906 47.871094 -26.574219 48.648438 -28.257812 C 49.582031 -30.289062 50.558594 -31.789062 51.570312 -32.761719 C 53.042969 -34.175781 54.679688 -34.886719 56.488281 -34.886719 C 57.265625 -34.886719 57.996094 -34.753906 58.679688 -34.488281 C 59.542969 -34.15625 60.269531 -33.644531 60.867188 -32.953125 C 61.816406 -31.855469 62.289062 -30.496094 62.289062 -28.875 C 62.289062 -27.617188 61.941406 -26.09375 61.25 -24.3125 L 59.53125 -19.898438 C 58.941406 -18.382812 58.425781 -16.753906 57.976562 -15.011719 C 57.582031 -13.460938 57.382812 -11.867188 57.382812 -10.230469 C 57.382812 -8.027344 57.761719 -6.40625 58.519531 -5.371094 C 58.734375 -5.074219 58.980469 -4.863281 59.265625 -4.730469 C 59.640625 -4.554688 60.140625 -4.46875 60.765625 -4.46875 C 61.835938 -4.46875 62.773438 -4.714844 63.574219 -5.207031 C 64.671875 -5.882812 65.667969 -6.765625 66.570312 -7.855469 C 67.617188 -9.125 68.53125 -10.453125 69.3125 -11.835938 C 70.164062 -13.339844 70.890625 -14.746094 71.492188 -16.054688 C 72.226562 -17.65625 72.875 -18.910156 73.445312 -19.820312 L 77.234375 -17.449219 L 73.085938 -15.792969 C 73.078125 -15.8125 73.039062 -15.863281 72.976562 -15.941406 C 73.089844 -15.800781 73.292969 -15.675781 73.582031 -15.566406 C 74.558594 -15.183594 75.535156 -15.222656 76.5 -15.675781 C 77.097656 -15.953125 77.546875 -16.332031 77.847656 -16.804688 Z M 77.796875 -16.726562 "/></g></g><g style="fill:#f3a6c9;fill-opacity:1;"><g transform="translate(81.632158, 64.690182)"><path style="stroke:none" d="M 14.085938 -33.449219 C 11.585938 -33.449219 9.375 -34.019531 7.453125 -35.164062 C 6.0625 -35.996094 5.019531 -37.148438 4.328125 -38.621094 C 3.746094 -39.871094 3.453125 -41.292969 3.453125 -42.890625 C 3.453125 -44.714844 3.734375 -46.316406 4.296875 -47.703125 C 4.988281 -49.402344 6.066406 -50.738281 7.523438 -51.699219 C 9.648438 -53.105469 12.117188 -53.808594 14.929688 -53.808594 C 17.578125 -53.808594 19.886719 -53.175781 21.859375 -51.910156 C 23.34375 -50.957031 24.382812 -49.625 24.988281 -47.914062 C 25.460938 -46.5625 25.625 -45.019531 25.476562 -43.285156 C 25.335938 -41.636719 24.949219 -40.1875 24.320312 -38.929688 C 23.582031 -37.453125 22.539062 -36.28125 21.199219 -35.417969 C 19.15625 -34.105469 16.785156 -33.449219 14.085938 -33.449219 Z M 14.085938 -42.382812 C 15.035156 -42.382812 15.792969 -42.566406 16.367188 -42.9375 C 16.34375 -42.921875 16.324219 -42.902344 16.304688 -42.882812 L 16.300781 -42.878906 C 16.308594 -42.890625 16.316406 -42.90625 16.328125 -42.929688 C 16.449219 -43.167969 16.53125 -43.539062 16.574219 -44.042969 C 16.613281 -44.503906 16.605469 -44.804688 16.554688 -44.949219 C 16.632812 -44.730469 16.792969 -44.542969 17.035156 -44.386719 C 16.53125 -44.710938 15.832031 -44.871094 14.929688 -44.871094 C 13.90625 -44.871094 13.082031 -44.664062 12.449219 -44.246094 C 12.503906 -44.28125 12.546875 -44.320312 12.582031 -44.367188 C 12.589844 -44.375 12.597656 -44.386719 12.601562 -44.390625 C 12.59375 -44.378906 12.585938 -44.359375 12.574219 -44.335938 C 12.449219 -44.027344 12.386719 -43.546875 12.386719 -42.890625 C 12.386719 -42.707031 12.398438 -42.558594 12.421875 -42.441406 C 12.425781 -42.414062 12.429688 -42.394531 12.4375 -42.378906 C 12.433594 -42.386719 12.429688 -42.398438 12.421875 -42.414062 C 12.335938 -42.59375 12.207031 -42.734375 12.03125 -42.839844 C 12.539062 -42.535156 13.226562 -42.382812 14.085938 -42.382812 Z M 6.308594 4.46875 C 4.417969 4.46875 2.738281 4.089844 1.269531 3.335938 C -0.34375 2.507812 -1.613281 1.285156 -2.542969 -0.328125 C -3.917969 -2.726562 -4.609375 -5.535156 -4.609375 -8.761719 C -4.609375 -10.660156 -4.421875 -12.652344 -4.046875 -14.734375 C -3.6875 -16.734375 -3.226562 -18.65625 -2.660156 -20.507812 C -0.921875 -25.929688 0.796875 -30.140625 2.484375 -33.136719 C 3.554688 -35.03125 4.773438 -36.503906 6.140625 -37.558594 C 7.832031 -38.859375 9.6875 -39.511719 11.703125 -39.511719 C 12.730469 -39.511719 13.679688 -39.316406 14.550781 -38.933594 C 15.554688 -38.488281 16.390625 -37.828125 17.054688 -36.949219 C 18.054688 -35.625 18.554688 -33.9375 18.554688 -31.890625 C 18.554688 -29.960938 18.195312 -28.011719 17.476562 -26.046875 L 15.902344 -21.710938 C 15.570312 -20.78125 15.402344 -19.945312 15.402344 -19.203125 C 15.402344 -19.121094 15.40625 -19.058594 15.410156 -19.015625 C 15.410156 -19.023438 15.402344 -19.046875 15.390625 -19.082031 C 15.316406 -19.3125 15.171875 -19.527344 14.96875 -19.734375 C 14.8125 -19.890625 14.632812 -20.007812 14.421875 -20.089844 C 14.285156 -20.140625 14.171875 -20.167969 14.085938 -20.167969 C 14.109375 -20.167969 14.125 -20.167969 14.128906 -20.167969 C 14.105469 -20.164062 14.074219 -20.15625 14.039062 -20.144531 C 13.945312 -20.109375 13.859375 -20.058594 13.789062 -19.996094 C 14.25 -20.410156 14.730469 -20.984375 15.230469 -21.71875 C 15.882812 -22.699219 16.730469 -23.417969 17.765625 -23.871094 C 18.921875 -24.378906 20.136719 -24.484375 21.402344 -24.179688 C 22.96875 -23.800781 24.269531 -22.976562 25.304688 -21.699219 C 25.984375 -20.859375 26.414062 -19.949219 26.589844 -18.96875 C 26.816406 -17.695312 26.613281 -16.488281 25.984375 -15.351562 L 25.925781 -15.25 L 25.867188 -15.152344 C 25.503906 -14.578125 25.050781 -13.679688 24.503906 -12.464844 C 23.828125 -10.960938 23.019531 -9.34375 22.078125 -7.609375 C 21.074219 -5.761719 19.925781 -4.003906 18.628906 -2.339844 C 17.183594 -0.480469 15.535156 1.0625 13.679688 2.289062 C 11.484375 3.742188 9.027344 4.46875 6.308594 4.46875 Z M 6.308594 -4.46875 C 7.234375 -4.46875 8.046875 -4.699219 8.75 -5.164062 C 9.789062 -5.851562 10.730469 -6.738281 11.578125 -7.824219 C 12.570312 -9.101562 13.453125 -10.453125 14.226562 -11.875 C 15.058594 -13.410156 15.769531 -14.832031 16.355469 -16.128906 C 17.070312 -17.71875 17.714844 -18.96875 18.289062 -19.890625 L 22.078125 -17.519531 L 18.171875 -19.691406 C 17.773438 -18.972656 17.644531 -18.207031 17.792969 -17.390625 C 17.886719 -16.863281 18.074219 -16.425781 18.359375 -16.078125 C 18.597656 -15.78125 18.917969 -15.585938 19.316406 -15.488281 C 20 -15.324219 20.679688 -15.394531 21.359375 -15.691406 C 21.917969 -15.9375 22.335938 -16.265625 22.613281 -16.6875 C 21.714844 -15.363281 20.769531 -14.257812 19.78125 -13.363281 C 18.207031 -11.941406 16.308594 -11.230469 14.085938 -11.230469 C 11.917969 -11.230469 10.105469 -11.960938 8.648438 -13.414062 C 7.195312 -14.871094 6.464844 -16.800781 6.464844 -19.203125 C 6.464844 -20.984375 6.8125 -22.835938 7.503906 -24.757812 L 9.085938 -29.109375 C 9.441406 -30.085938 9.621094 -31.015625 9.621094 -31.890625 C 9.621094 -32.046875 9.613281 -32.140625 9.605469 -32.175781 C 9.652344 -31.984375 9.761719 -31.78125 9.925781 -31.5625 C 10.195312 -31.207031 10.535156 -30.9375 10.941406 -30.757812 C 11.21875 -30.636719 11.472656 -30.574219 11.703125 -30.574219 C 11.722656 -30.574219 11.742188 -30.578125 11.757812 -30.582031 C 11.722656 -30.570312 11.667969 -30.535156 11.589844 -30.476562 C 11.183594 -30.164062 10.742188 -29.585938 10.269531 -28.746094 C 8.875 -26.277344 7.414062 -22.660156 5.886719 -17.898438 C 5.421875 -16.386719 5.042969 -14.804688 4.75 -13.15625 C 4.46875 -11.597656 4.328125 -10.128906 4.328125 -8.761719 C 4.328125 -7.125 4.621094 -5.800781 5.203125 -4.785156 C 5.257812 -4.695312 5.304688 -4.636719 5.355469 -4.613281 C 5.542969 -4.515625 5.859375 -4.46875 6.308594 -4.46875 Z M 6.308594 -4.46875 "/></g></g><g style="fill:#f3a6c9;fill-opacity:1;"><g transform="translate(98.873042, 64.690182)"><path style="stroke:none" d="M 10.511719 6.5 C 7.335938 6.5 4.609375 5.800781 2.328125 4.40625 C 0.0820312 3.03125 -1.664062 1.199219 -2.910156 -1.089844 C -4.050781 -3.191406 -4.761719 -5.476562 -5.035156 -7.953125 C -5.300781 -10.316406 -5.183594 -12.679688 -4.6875 -15.039062 C -4.1875 -17.414062 -3.371094 -19.5625 -2.230469 -21.484375 L -2.113281 -21.683594 L -1.972656 -21.871094 C -0.6875 -23.601562 0.570312 -25.4375 1.796875 -27.371094 C 3.132812 -29.488281 4.484375 -31.484375 5.847656 -33.359375 C 7.390625 -35.484375 9.019531 -37.230469 10.734375 -38.601562 C 12.953125 -40.375 15.332031 -41.261719 17.871094 -41.261719 C 21.28125 -41.261719 23.945312 -40.324219 25.867188 -38.449219 C 27.867188 -36.492188 28.816406 -34.289062 28.714844 -31.84375 L 24.25 -32.027344 L 28.71875 -32.027344 C 28.71875 -31.015625 28.484375 -30.066406 28.019531 -29.179688 C 27.589844 -28.363281 26.992188 -27.660156 26.222656 -27.074219 C 25.457031 -26.492188 24.578125 -25.976562 23.589844 -25.535156 C 23.308594 -25.410156 23.078125 -25.265625 22.894531 -25.109375 C 23.136719 -25.316406 23.328125 -25.582031 23.472656 -25.898438 C 23.605469 -26.191406 23.671875 -26.484375 23.671875 -26.773438 C 23.671875 -27.023438 23.648438 -27.246094 23.601562 -27.449219 C 23.59375 -27.484375 23.585938 -27.507812 23.578125 -27.53125 C 23.582031 -27.527344 23.582031 -27.519531 23.589844 -27.503906 C 23.652344 -27.328125 23.769531 -27.074219 23.933594 -26.738281 L 25.625 -23.324219 C 26.328125 -21.890625 26.953125 -20.4375 27.496094 -18.960938 C 28.171875 -17.128906 28.507812 -15.390625 28.507812 -13.738281 C 28.507812 -10.082031 27.804688 -6.761719 26.398438 -3.773438 C 24.933594 -0.660156 22.863281 1.8125 20.1875 3.648438 C 17.417969 5.550781 14.191406 6.5 10.511719 6.5 Z M 10.511719 -2.433594 C 12.347656 -2.433594 13.886719 -2.863281 15.132812 -3.71875 C 16.476562 -4.640625 17.535156 -5.925781 18.316406 -7.578125 C 19.152344 -9.359375 19.570312 -11.414062 19.570312 -13.738281 C 19.570312 -14.328125 19.417969 -15.039062 19.109375 -15.871094 C 18.671875 -17.058594 18.175781 -18.222656 17.617188 -19.359375 L 15.941406 -22.742188 C 15.136719 -24.351562 14.734375 -25.695312 14.734375 -26.773438 C 14.734375 -27.761719 14.929688 -28.6875 15.320312 -29.558594 C 15.71875 -30.445312 16.296875 -31.21875 17.054688 -31.871094 C 17.898438 -32.601562 18.859375 -33.207031 19.933594 -33.6875 C 20.296875 -33.851562 20.589844 -34.015625 20.804688 -34.179688 C 20.527344 -33.96875 20.292969 -33.6875 20.109375 -33.335938 C 19.890625 -32.917969 19.78125 -32.484375 19.78125 -32.027344 L 19.78125 -32.121094 L 19.785156 -32.214844 C 19.777344 -32.050781 19.804688 -31.90625 19.859375 -31.785156 C 19.839844 -31.832031 19.757812 -31.921875 19.617188 -32.058594 L 19.617188 -32.054688 C 19.5625 -32.085938 19.484375 -32.117188 19.386719 -32.148438 C 19.015625 -32.269531 18.507812 -32.328125 17.871094 -32.328125 C 17.421875 -32.328125 16.902344 -32.09375 16.316406 -31.625 C 15.226562 -30.753906 14.148438 -29.578125 13.074219 -28.105469 C 11.824219 -26.382812 10.582031 -24.546875 9.347656 -22.597656 C 8.003906 -20.46875 6.621094 -18.449219 5.199219 -16.539062 L 1.613281 -19.203125 L 5.453125 -16.921875 C 4.820312 -15.851562 4.351562 -14.613281 4.058594 -13.203125 C 3.757812 -11.777344 3.6875 -10.355469 3.84375 -8.9375 C 3.992188 -7.628906 4.355469 -6.433594 4.941406 -5.359375 C 5.425781 -4.472656 6.109375 -3.757812 6.992188 -3.214844 C 7.84375 -2.695312 9.015625 -2.433594 10.511719 -2.433594 Z M 9.121094 -19.726562 C 9.078125 -19.558594 9.058594 -19.359375 9.058594 -19.132812 L 9.058594 -19.625 C 9.058594 -20.042969 8.988281 -20.492188 8.847656 -20.976562 C 8.683594 -21.542969 8.425781 -22.152344 8.070312 -22.796875 L 8.027344 -22.875 L 7.988281 -22.953125 C 8.121094 -22.6875 8.328125 -22.425781 8.609375 -22.167969 C 9.335938 -21.511719 10.203125 -21.183594 11.214844 -21.183594 C 12.085938 -21.183594 12.847656 -21.433594 13.5 -21.933594 C 13.710938 -22.097656 13.863281 -22.246094 13.960938 -22.386719 L 10.300781 -24.949219 L 14.089844 -22.582031 C 13.542969 -21.707031 12.945312 -20.851562 12.292969 -20.007812 C 11.785156 -19.351562 11.296875 -18.683594 10.832031 -18.003906 L 7.148438 -20.535156 L 7.347656 -25 C 10.152344 -24.875 12.910156 -24.058594 15.625 -22.546875 L 13.457031 -18.644531 Z M 17.789062 -17.558594 L 16.378906 -11.910156 L 11.285156 -14.738281 C 9.796875 -15.5625 8.351562 -16.007812 6.949219 -16.070312 L -1.097656 -16.429688 L 3.46875 -23.066406 C 4.027344 -23.882812 4.617188 -24.6875 5.226562 -25.476562 C 5.695312 -26.082031 6.125 -26.699219 6.515625 -27.316406 L 6.574219 -27.417969 L 6.640625 -27.511719 C 7.859375 -29.25 9.382812 -30.117188 11.214844 -30.117188 C 12.503906 -30.117188 13.640625 -29.671875 14.621094 -28.78125 C 15.164062 -28.289062 15.613281 -27.679688 15.980469 -26.949219 L 11.984375 -24.949219 L 15.898438 -27.101562 C 16.574219 -25.878906 17.082031 -24.664062 17.433594 -23.460938 C 17.808594 -22.164062 17.996094 -20.886719 17.996094 -19.625 L 17.996094 -19.132812 C 17.996094 -18.625 17.925781 -18.101562 17.789062 -17.558594 Z M 7.988281 -16.871094 C 8.027344 -16.871094 8.054688 -16.875 8.070312 -16.878906 C 8.066406 -16.878906 8.0625 -16.875 8.058594 -16.875 C 8.117188 -16.902344 8.199219 -16.984375 8.3125 -17.121094 L 11.773438 -14.296875 L 8.613281 -11.136719 C 8.117188 -11.632812 7.597656 -12.003906 7.050781 -12.246094 C 6.851562 -12.335938 6.703125 -12.390625 6.601562 -12.40625 C 6.695312 -12.390625 6.824219 -12.398438 6.992188 -12.429688 C 7.378906 -12.5 7.75 -12.652344 8.101562 -12.878906 C 8.503906 -13.140625 8.835938 -13.46875 9.089844 -13.867188 C 9.371094 -14.3125 9.515625 -14.710938 9.515625 -15.066406 C 9.515625 -15.339844 9.445312 -15.617188 9.3125 -15.898438 C 9.175781 -16.195312 8.992188 -16.433594 8.765625 -16.617188 C 8.554688 -16.789062 8.292969 -16.871094 7.988281 -16.871094 Z M 7.988281 -7.9375 C 6.191406 -7.9375 4.578125 -8.511719 3.148438 -9.664062 C 2.316406 -10.339844 1.675781 -11.144531 1.234375 -12.082031 C 0.796875 -13.007812 0.578125 -14.003906 0.578125 -15.066406 C 0.578125 -16.453125 0.90625 -17.660156 1.5625 -18.6875 C 2.445312 -20.0625 3.703125 -20.90625 5.34375 -21.210938 C 7.003906 -21.523438 8.78125 -21.257812 10.679688 -20.414062 C 12.238281 -19.722656 13.65625 -18.734375 14.933594 -17.457031 L 17.785156 -14.601562 L 15.238281 -11.476562 C 14.320312 -10.347656 13.257812 -9.484375 12.054688 -8.882812 C 10.796875 -8.253906 9.441406 -7.9375 7.988281 -7.9375 Z M 7.988281 -7.9375 "/></g></g><g style="fill:#f3a6c9;fill-opacity:1;"><g transform="translate(125.295047, 64.690182)"><path style="stroke:none" d="M 7.988281 5.167969 C 5.167969 5.167969 2.734375 4.148438 0.695312 2.109375 C -1.34375 0.0664062 -2.367188 -2.363281 -2.367188 -5.1875 C -2.367188 -8.074219 -1.335938 -10.527344 0.726562 -12.546875 C 2.765625 -14.542969 5.183594 -15.542969 7.988281 -15.542969 C 10.859375 -15.542969 13.300781 -14.53125 15.320312 -12.515625 C 17.335938 -10.5 18.34375 -8.054688 18.34375 -5.1875 C 18.34375 -2.382812 17.347656 0.0390625 15.351562 2.074219 C 13.332031 4.136719 10.875 5.167969 7.988281 5.167969 Z M 7.988281 -3.765625 C 8.375 -3.765625 8.699219 -3.902344 8.96875 -4.179688 C 9.261719 -4.476562 9.410156 -4.8125 9.410156 -5.1875 C 9.410156 -5.585938 9.273438 -5.925781 9 -6.195312 C 8.726562 -6.46875 8.390625 -6.605469 7.988281 -6.605469 C 7.617188 -6.605469 7.28125 -6.457031 6.980469 -6.164062 C 6.707031 -5.898438 6.570312 -5.570312 6.570312 -5.1875 C 6.570312 -4.832031 6.71875 -4.507812 7.015625 -4.210938 C 7.308594 -3.914062 7.636719 -3.765625 7.988281 -3.765625 Z M 7.988281 -3.765625 "/></g></g><g style="fill:#f3a6c9;fill-opacity:1;"><g transform="translate(141.97549, 64.690182)"><path style="stroke:none" d=""/></g></g><g style="fill:#fed5ff;fill-opacity:1;"><g transform="translate(9.16437, 64.690182)"><path style="stroke:none" d="M 74.078125 -19.203125 C 74.398438 -19.710938 74.769531 -19.882812 75.1875 -19.71875 C 75.613281 -19.5625 76.015625 -19.257812 76.390625 -18.8125 C 76.765625 -18.375 77.039062 -17.921875 77.21875 -17.453125 C 76.757812 -16.703125 76.203125 -15.613281 75.546875 -14.1875 C 74.890625 -12.757812 74.101562 -11.238281 73.1875 -9.625 C 72.28125 -8.019531 71.21875 -6.476562 70 -5 C 68.789062 -3.53125 67.425781 -2.328125 65.90625 -1.390625 C 64.382812 -0.460938 62.664062 0 60.75 0 C 58.1875 0 56.238281 -0.910156 54.90625 -2.734375 C 53.570312 -4.554688 52.90625 -7.054688 52.90625 -10.234375 C 52.90625 -12.242188 53.148438 -14.203125 53.640625 -16.109375 C 54.128906 -18.023438 54.703125 -19.820312 55.359375 -21.5 C 56.015625 -23.1875 56.585938 -24.660156 57.078125 -25.921875 C 57.566406 -27.191406 57.8125 -28.175781 57.8125 -28.875 C 57.8125 -29.894531 57.367188 -30.40625 56.484375 -30.40625 C 55.878906 -30.40625 55.269531 -30.113281 54.65625 -29.53125 C 54.050781 -28.945312 53.394531 -27.894531 52.6875 -26.375 C 51.988281 -24.863281 51.195312 -22.71875 50.3125 -19.9375 C 49.425781 -17.15625 48.421875 -13.546875 47.296875 -9.109375 C 46.691406 -6.679688 45.816406 -5.113281 44.671875 -4.40625 C 43.523438 -3.707031 42.367188 -3.359375 41.203125 -3.359375 C 39.003906 -3.359375 37.53125 -3.734375 36.78125 -4.484375 C 36.039062 -5.234375 35.671875 -6.332031 35.671875 -7.78125 C 35.671875 -9.082031 35.878906 -10.515625 36.296875 -12.078125 C 36.722656 -13.648438 37.191406 -15.300781 37.703125 -17.03125 C 38.210938 -18.757812 38.675781 -20.5 39.09375 -22.25 C 39.519531 -24 39.734375 -25.671875 39.734375 -27.265625 C 39.734375 -28.617188 39.566406 -29.515625 39.234375 -29.953125 C 38.910156 -30.398438 38.515625 -30.625 38.046875 -30.625 C 37.023438 -30.625 36.375 -29.96875 36.09375 -28.65625 C 34.550781 -21.09375 32.410156 -14.984375 29.671875 -10.328125 C 26.941406 -5.679688 23.8125 -2.304688 20.28125 -0.203125 C 16.757812 1.890625 13.015625 2.9375 9.046875 2.9375 C 6.328125 2.9375 4.066406 2.363281 2.265625 1.21875 C 0.472656 0.0820312 -0.863281 -1.394531 -1.75 -3.21875 C -2.632812 -5.039062 -3.078125 -6.910156 -3.078125 -8.828125 C -3.078125 -10.742188 -2.691406 -12.578125 -1.921875 -14.328125 C -1.148438 -16.078125 -0.0664062 -17.5 1.328125 -18.59375 C 2.734375 -19.695312 4.367188 -20.25 6.234375 -20.25 C 6.929688 -20.25 7.28125 -19.96875 7.28125 -19.40625 C 7.28125 -17.863281 7.957031 -16.613281 9.3125 -15.65625 C 10.675781 -14.695312 12.359375 -14.21875 14.359375 -14.21875 C 16.328125 -14.21875 18.175781 -14.695312 19.90625 -15.65625 C 21.632812 -16.613281 23.195312 -17.863281 24.59375 -19.40625 C 26 -20.945312 27.210938 -22.648438 28.234375 -24.515625 C 29.265625 -26.390625 30.046875 -28.257812 30.578125 -30.125 C 31.117188 -32 31.390625 -33.679688 31.390625 -35.171875 C 31.390625 -37.046875 30.957031 -38.472656 30.09375 -39.453125 C 29.226562 -40.429688 28.050781 -40.921875 26.5625 -40.921875 C 24.875 -40.921875 23.375 -40.300781 22.0625 -39.0625 C 20.757812 -37.832031 20.109375 -36.117188 20.109375 -33.921875 C 20.109375 -32.703125 20.445312 -31.671875 21.125 -30.828125 C 21.800781 -29.992188 22.65625 -29.578125 23.6875 -29.578125 C 24.101562 -28.640625 24.03125 -27.503906 23.46875 -26.171875 C 22.914062 -24.835938 21.945312 -23.664062 20.5625 -22.65625 C 19.1875 -21.65625 17.445312 -21.15625 15.34375 -21.15625 C 12.59375 -21.15625 10.304688 -22.160156 8.484375 -24.171875 C 6.660156 -26.179688 5.75 -28.820312 5.75 -32.09375 C 5.75 -34.757812 6.285156 -37.296875 7.359375 -39.703125 C 8.429688 -42.109375 9.984375 -44.242188 12.015625 -46.109375 C 14.046875 -47.984375 16.484375 -49.457031 19.328125 -50.53125 C 22.179688 -51.601562 25.363281 -52.140625 28.875 -52.140625 C 34.988281 -52.140625 39.71875 -50.410156 43.0625 -46.953125 C 46.40625 -43.492188 48.378906 -38.84375 48.984375 -33 C 50.148438 -35.4375 51.539062 -37.796875 53.15625 -40.078125 C 54.769531 -42.367188 56.519531 -44.414062 58.40625 -46.21875 C 60.300781 -48.019531 62.253906 -49.457031 64.265625 -50.53125 C 66.273438 -51.601562 68.257812 -52.140625 70.21875 -52.140625 C 72.925781 -52.140625 74.835938 -51.414062 75.953125 -49.96875 C 77.078125 -48.519531 77.640625 -46.835938 77.640625 -44.921875 C 77.640625 -43.515625 77.382812 -42.132812 76.875 -40.78125 C 76.363281 -39.425781 75.707031 -38.304688 74.90625 -37.421875 C 74.113281 -36.535156 73.296875 -36.09375 72.453125 -36.09375 C 71.941406 -36.09375 71.5 -36.21875 71.125 -36.46875 C 70.75 -36.726562 70.332031 -36.859375 69.875 -36.859375 C 69.164062 -36.859375 68.507812 -36.4375 67.90625 -35.59375 C 67.300781 -34.757812 66.765625 -33.675781 66.296875 -32.34375 C 65.828125 -31.007812 65.425781 -29.59375 65.09375 -28.09375 C 64.769531 -26.601562 64.515625 -25.179688 64.328125 -23.828125 C 64.140625 -22.472656 64.046875 -21.375 64.046875 -20.53125 C 64.046875 -19.082031 64.359375 -17.898438 64.984375 -16.984375 C 65.617188 -16.078125 66.734375 -15.625 68.328125 -15.625 C 70.566406 -15.625 72.484375 -16.816406 74.078125 -19.203125 Z M 74.078125 -19.203125 "/></g></g><g style="fill:#fed5ff;fill-opacity:1;"><g transform="translate(81.632158, 64.690182)"><path style="stroke:none" d="M 14.078125 -37.90625 C 12.398438 -37.90625 10.953125 -38.265625 9.734375 -38.984375 C 8.523438 -39.710938 7.921875 -41.015625 7.921875 -42.890625 C 7.921875 -45.367188 8.609375 -47.0625 9.984375 -47.96875 C 11.359375 -48.875 13.003906 -49.328125 14.921875 -49.328125 C 16.703125 -49.328125 18.207031 -48.929688 19.4375 -48.140625 C 20.675781 -47.347656 21.207031 -45.851562 21.03125 -43.65625 C 20.84375 -41.507812 20.09375 -40.015625 18.78125 -39.171875 C 17.46875 -38.328125 15.898438 -37.90625 14.078125 -37.90625 Z M 6.3125 0 C 3.96875 0 2.304688 -0.847656 1.328125 -2.546875 C 0.347656 -4.253906 -0.140625 -6.328125 -0.140625 -8.765625 C -0.140625 -10.398438 0.0195312 -12.125 0.34375 -13.9375 C 0.675781 -15.757812 1.097656 -17.515625 1.609375 -19.203125 C 3.242188 -24.296875 4.832031 -28.207031 6.375 -30.9375 C 7.914062 -33.675781 9.691406 -35.046875 11.703125 -35.046875 C 13.285156 -35.046875 14.078125 -33.992188 14.078125 -31.890625 C 14.078125 -30.484375 13.804688 -29.046875 13.265625 -27.578125 C 12.734375 -26.109375 12.210938 -24.660156 11.703125 -23.234375 C 11.191406 -21.804688 10.9375 -20.460938 10.9375 -19.203125 C 10.9375 -18.035156 11.226562 -17.160156 11.8125 -16.578125 C 12.394531 -15.992188 13.148438 -15.703125 14.078125 -15.703125 C 15.160156 -15.703125 16.0625 -16.023438 16.78125 -16.671875 C 17.507812 -17.328125 18.222656 -18.171875 18.921875 -19.203125 C 19.296875 -19.765625 19.773438 -19.972656 20.359375 -19.828125 C 20.941406 -19.691406 21.429688 -19.378906 21.828125 -18.890625 C 22.222656 -18.398438 22.304688 -17.941406 22.078125 -17.515625 C 21.609375 -16.765625 21.054688 -15.6875 20.421875 -14.28125 C 19.796875 -12.882812 19.035156 -11.367188 18.140625 -9.734375 C 17.253906 -8.097656 16.238281 -6.546875 15.09375 -5.078125 C 13.957031 -3.609375 12.664062 -2.394531 11.21875 -1.4375 C 9.769531 -0.476562 8.132812 0 6.3125 0 Z M 6.3125 0 "/></g></g><g style="fill:#fed5ff;fill-opacity:1;"><g transform="translate(98.873042, 64.690182)"><path style="stroke:none" d="M 10.515625 2.03125 C 8.179688 2.03125 6.226562 1.550781 4.65625 0.59375 C 3.09375 -0.363281 1.878906 -1.632812 1.015625 -3.21875 C 0.148438 -4.8125 -0.382812 -6.550781 -0.59375 -8.4375 C -0.800781 -10.332031 -0.707031 -12.222656 -0.3125 -14.109375 C 0.0820312 -16.003906 0.722656 -17.703125 1.609375 -19.203125 C 2.960938 -21.023438 4.28125 -22.953125 5.5625 -24.984375 C 6.851562 -27.015625 8.148438 -28.925781 9.453125 -30.71875 C 10.765625 -32.519531 12.117188 -33.984375 13.515625 -35.109375 C 14.921875 -36.234375 16.375 -36.796875 17.875 -36.796875 C 20.0625 -36.796875 21.679688 -36.28125 22.734375 -35.25 C 23.785156 -34.21875 24.289062 -33.144531 24.25 -32.03125 C 24.25 -31.46875 24.003906 -31 23.515625 -30.625 C 23.023438 -30.25 22.441406 -29.910156 21.765625 -29.609375 C 21.085938 -29.304688 20.488281 -28.929688 19.96875 -28.484375 C 19.457031 -28.046875 19.203125 -27.472656 19.203125 -26.765625 C 19.203125 -26.390625 19.445312 -25.710938 19.9375 -24.734375 C 20.425781 -23.753906 20.984375 -22.617188 21.609375 -21.328125 C 22.242188 -20.046875 22.804688 -18.738281 23.296875 -17.40625 C 23.785156 -16.082031 24.03125 -14.859375 24.03125 -13.734375 C 24.03125 -10.742188 23.46875 -8.054688 22.34375 -5.671875 C 21.226562 -3.296875 19.664062 -1.414062 17.65625 -0.03125 C 15.644531 1.34375 13.265625 2.03125 10.515625 2.03125 Z M 13.453125 -18.640625 C 13.503906 -18.828125 13.53125 -18.988281 13.53125 -19.125 C 13.53125 -19.269531 13.53125 -19.4375 13.53125 -19.625 C 13.53125 -20.46875 13.398438 -21.332031 13.140625 -22.21875 C 12.878906 -23.101562 12.492188 -24.015625 11.984375 -24.953125 C 11.515625 -25.878906 10.953125 -25.878906 10.296875 -24.953125 C 9.828125 -24.203125 9.3125 -23.460938 8.75 -22.734375 C 8.195312 -22.015625 7.660156 -21.28125 7.140625 -20.53125 C 9.242188 -20.4375 11.347656 -19.804688 13.453125 -18.640625 Z M 7.984375 -12.40625 C 9.484375 -12.40625 10.742188 -13.035156 11.765625 -14.296875 C 10.878906 -15.179688 9.910156 -15.859375 8.859375 -16.328125 C 7.804688 -16.796875 6.90625 -16.957031 6.15625 -16.8125 C 5.414062 -16.675781 5.046875 -16.09375 5.046875 -15.0625 C 5.046875 -14.269531 5.347656 -13.628906 5.953125 -13.140625 C 6.566406 -12.648438 7.242188 -12.40625 7.984375 -12.40625 Z M 7.984375 -12.40625 "/></g></g><g style="fill:#fed5ff;fill-opacity:1;"><g transform="translate(125.295047, 64.690182)"><path style="stroke:none" d="M 7.984375 0.703125 C 6.398438 0.703125 5.023438 0.117188 3.859375 -1.046875 C 2.691406 -2.210938 2.109375 -3.59375 2.109375 -5.1875 C 2.109375 -6.820312 2.691406 -8.210938 3.859375 -9.359375 C 5.023438 -10.503906 6.398438 -11.078125 7.984375 -11.078125 C 9.617188 -11.078125 11.007812 -10.503906 12.15625 -9.359375 C 13.300781 -8.210938 13.875 -6.820312 13.875 -5.1875 C 13.875 -3.59375 13.300781 -2.210938 12.15625 -1.046875 C 11.007812 0.117188 9.617188 0.703125 7.984375 0.703125 Z M 7.984375 0.703125 "/></g></g><g style="fill:#fed5ff;fill-opacity:1;"><g transform="translate(141.97549, 64.690182)"><path style="stroke:none" d=""/></g></g></g></g></g></svg>